<?xml version="1.0" standalone="no"?>
<!DOCTYPE svg PUBLIC "-//W3C//DTD SVG 1.1//EN" "http://www.w3.org/Graphics/SVG/1.1/DTD/svg11.dtd" >
<svg xmlns="http://www.w3.org/2000/svg">
<metadata>Generated by IcoMoon</metadata>
<defs>
<font id="liliana-icon" horiz-adv-x="1024">
<font-face units-per-em="1024" ascent="1024" descent="0" />
<missing-glyph horiz-adv-x="1024" />
<glyph unicode="&#x20;" horiz-adv-x="0" d="" />
<glyph unicode="&#xe900;" glyph-name="add" d="M503.424 841.557c-9.045-1.835-16.64-7.040-19.968-13.739-2.816-5.632-3.072-16.171-3.499-144.683l-0.469-138.581-277.248-0.981-7.211-4.139c-9.429-5.376-13.141-13.141-13.227-27.435-0.043-14.165 4.309-23.125 13.739-28.032 6.571-3.499 9.003-3.541 145.323-4.011l138.624-0.469 0.469-138.624c0.469-136.32 0.512-138.752 4.011-145.323 4.907-9.387 13.867-13.781 28.032-13.781s23.125 4.395 28.032 13.781c3.499 6.571 3.541 9.003 4.011 145.323l0.469 138.624 138.624 0.469c136.32 0.469 138.752 0.512 145.323 4.011 9.429 4.907 13.781 13.867 13.739 28.032-0.085 14.293-3.797 22.059-13.227 27.435l-7.211 4.139-277.248 0.981-0.469 138.581c-0.427 129.109-0.683 139.051-3.499 144.725-5.248 10.496-22.016 16.683-37.12 13.696z" />
<glyph unicode="&#xe901;" glyph-name="arrow-down" d="M234.667 659.797c-6.827-3.029-17.792-14.208-20.693-21.035-1.39-2.924-2.202-6.354-2.202-9.973 0-3.861 0.924-7.506 2.563-10.727l-0.062 0.134c3.2-7.808 262.315-267.989 273.493-274.603 8.32-4.992 17.92-5.589 25.387-1.621 2.645 1.408 65.621 63.445 139.947 137.899 149.547 149.845 142.421 141.611 136.405 157.397-3.072 8.021-15.061 20.437-22.485 23.253-2.738 0.985-5.897 1.554-9.19 1.554-4.218 0-8.218-0.934-11.803-2.608l0.172 0.072c-4.437-1.835-42.88-39.125-125.867-122.027l-119.467-119.339-119.467 119.467c-65.664 65.664-121.856 120.576-124.8 121.984-3.28 1.511-7.117 2.392-11.159 2.392-3.894 0-7.596-0.818-10.946-2.29l0.175 0.068z" />
<glyph unicode="&#xe902;" glyph-name="arrow-left" d="M628.907 798.763c-4.437-2.219-53.973-50.603-141.099-137.813-147.541-147.755-141.013-140.288-136.363-156.203 1.835-6.357 19.029-24.192 138.069-143.232 149.333-149.291 141.867-142.763 157.525-138.069 9.301 2.773 22.741 16.213 25.515 25.515 4.651 15.531 9.728 9.685-122.709 142.293l-120.576 120.747 120.576 120.747c131.755 131.925 127.36 126.848 122.88 141.739-3.883 12.971-21.291 27.648-32.853 27.648-4.082-0.52-7.785-1.708-11.149-3.457l0.183 0.087z" />
<glyph unicode="&#xe903;" glyph-name="arrow-left-1" d="M501.76 842.112c-3.84-1.664-59.52-55.936-156.16-152.277-50.557-50.568-101.286-100.905-152.215-151.040l-3.476-3.413c-3.89-3.77-6.807-8.522-8.35-13.858l-0.055-0.222c-2.773-8.789-2.773-9.813 0.043-18.645 1.593-5.538 4.461-10.284 8.276-14.079l0.001-0.001c2.901-2.603 73.344-72.448 156.501-155.221 165.888-165.077 157.056-157.269 172.715-152.576 9.301 2.773 22.741 16.213 25.515 25.515 4.693 15.573 10.197 9.216-127.787 147.413l-125.696 125.824 265.344 0.469c264.363 0.427 265.387 0.427 272.043 3.968 9.429 4.907 13.781 13.867 13.739 28.032-0.085 14.293-3.797 22.059-13.227 27.435l-7.211 4.139-530.645 0.896 125.653 125.867c137.301 137.472 132.437 131.883 127.957 146.816-3.883 13.013-21.461 27.776-32.853 27.563-3.729-0.35-7.157-1.274-10.32-2.685l0.208 0.083z" />
<glyph unicode="&#xe904;" glyph-name="arrow-right" d="M372.437 798.507c-8.917-4.395-18.56-15.36-21.163-24.021-4.48-14.891-8.875-9.813 122.88-141.739l120.576-120.747-120.576-120.747c-132.437-132.608-127.36-126.763-122.709-142.293 2.773-9.301 16.213-22.741 25.515-25.515 15.659-4.693 8.192-11.221 157.525 138.069 119.040 119.040 136.235 136.875 138.069 143.232 4.651 15.915 11.179 8.448-136.363 156.203-90.325 90.411-136.533 135.552-141.227 137.813-8.832 4.309-13.483 4.224-22.528-0.256z" />
<glyph unicode="&#xe905;" glyph-name="arrow-right-1" d="M500.437 841.173c-8.917-4.395-18.56-15.36-21.163-24.021-4.48-14.933-9.344-9.344 127.957-146.816l125.653-125.867-530.645-0.896-7.211-4.139c-9.429-5.376-13.141-13.141-13.227-27.435-0.043-14.165 4.309-23.125 13.739-28.032 6.656-3.541 7.68-3.541 272.043-3.968l265.344-0.469-125.696-125.824c-137.984-138.197-132.48-131.84-127.787-147.413 2.773-9.301 16.213-22.741 25.515-25.515 15.659-4.693 6.827-12.501 172.715 152.576 83.157 82.773 153.6 152.619 156.501 155.221 3.816 3.796 6.685 8.542 8.221 13.853l0.056 0.227c2.816 8.832 2.816 9.856 0.043 18.645-1.598 5.558-4.515 10.31-8.397 14.072l-0.008 0.008c-54.404 53.548-105.133 103.886-155.661 154.424l-0.029 0.029c-105.131 104.832-152.107 150.485-156.544 152.32-8.448 3.541-12.715 3.328-21.419-0.981z" />
<glyph unicode="&#xe906;" glyph-name="arrow-up" d="M500.907 670.763c-4.437-2.219-53.973-50.603-141.099-137.813-147.371-147.584-141.056-140.373-136.363-155.989 2.773-9.301 16.213-22.741 25.515-25.515 15.531-4.651 9.685-9.728 142.293 122.709l120.747 120.576 120.747-120.576c132.608-132.437 126.763-127.36 142.293-122.709 9.301 2.773 22.741 16.213 25.515 25.515 4.693 15.616 11.008 8.405-136.363 155.989-90.325 90.411-136.533 135.552-141.227 137.813-8.704 4.267-13.483 4.224-22.059 0z" />
<glyph unicode="&#xe907;" glyph-name="arrow-up-left" d="M288.811 756.907c-9.515-3.456-15.915-8.661-19.285-15.616-3.413-7.083-3.456-9.429-3.328-226.859 0.085-154.709 0.683-221.909 2.005-227.2 3.968-15.744 20.437-23.765 39.851-19.456 11.52 2.603 18.432 9.003 21.12 19.584 1.365 5.504 1.92 58.325 1.92 183.979v176.299l189.867-189.696c208.341-208.171 195.584-196.565 211.413-191.829 9.301 2.773 22.741 16.213 25.515 25.515 4.736 15.829 16.341 3.072-191.787 211.371l-189.696 189.867 180.011 0.427c178.133 0.469 180.096 0.512 186.709 4.011 9.429 4.907 13.781 13.867 13.739 28.032-0.085 14.293-3.797 22.059-13.227 27.435l-7.211 4.139-101.547 0.427c-300.416 1.237-341.589 1.195-346.069-0.427z" />
<glyph unicode="&#xe908;" glyph-name="briefcase" d="M410.325 926.592c-24.875-2.901-46.848-13.952-66.219-33.323-13.288-12.855-23.452-28.856-29.297-46.807l-0.228-0.809c-4.181-12.629-4.565-16.427-5.291-50.773l-0.768-37.12h-68.48c-37.675-0.043-75.221-0.811-83.413-1.749-27.52-3.157-48.384-13.312-68.523-33.408-13.266-12.9-23.469-28.88-29.457-46.79l-0.239-0.826-4.651-13.653v-469.333l4.651-13.653c6.443-18.987 15.445-33.408 29.653-47.616s28.629-23.211 47.616-29.653l13.653-4.651h725.333l13.653 4.651c18.737 6.205 34.719 16.395 47.59 29.627l0.026 0.027c14.208 14.208 23.211 28.629 29.653 47.616l4.651 13.653v469.333l-4.651 13.653c-6.227 18.736-16.43 34.716-29.669 47.59l-0.027 0.026c-20.139 20.096-41.003 30.251-68.523 33.408-8.192 0.939-45.739 1.707-83.413 1.749h-68.48l-0.768 37.12c-0.725 34.347-1.109 38.144-5.291 50.773-6.073 18.76-16.237 34.761-29.494 47.586l-0.032 0.030c-20.139 20.096-41.003 30.251-68.523 33.408-17.664 2.048-183.552 1.92-201.045-0.085zM619.861 858.752c10.197-5.035 20.523-15.36 25.557-25.557 3.669-7.424 4.011-10.539 4.48-41.728l0.555-33.707h-276.693v31.36c0 34.389 1.152 40.448 10.069 52.608 2.773 3.712 8.064 9.045 11.819 11.776 13.739 10.112 11.051 9.899 118.059 9.557l98.133-0.341 8.021-3.968zM308.907 426.667v-266.24h-74.155c-70.229 0-74.709 0.171-83.413 3.456-11.008 4.096-23.125 15.445-28.757 26.88l-3.968 8.064-0.469 224.427c-0.384 167.125 0 226.304 1.493 231.68 3.968 14.507 18.475 29.867 33.365 35.328 5.248 1.92 21.504 2.432 81.237 2.517l74.667 0.128v-266.24zM650.24 426.667v-266.24h-276.48v532.48h276.48v-266.24zM875.861 688.085c10.197-5.035 20.523-15.36 25.557-25.557l3.968-8.021v-455.68l-3.968-8.064c-5.632-11.435-17.749-22.784-28.757-26.88-8.704-3.285-13.184-3.456-83.413-3.456h-74.155v532.565l76.373-0.469c75.904-0.469 76.416-0.512 84.395-4.437z" />
<glyph unicode="&#xe909;" glyph-name="calendar" d="M332.757 969.557c-9.045-1.835-16.64-7.040-19.968-13.739-2.517-4.992-3.115-11.691-3.584-38.059l-0.555-32h-47.232c-25.984-0.043-53.931-0.811-62.123-1.749-27.52-3.157-48.384-13.312-68.523-33.408-13.266-12.9-23.469-28.88-29.457-46.79l-0.239-0.826-4.651-13.653v-640l4.651-13.653c6.443-18.987 15.445-33.408 29.653-47.616s28.629-23.211 47.616-29.653l13.653-4.651h640l13.653 4.651c18.737 6.205 34.719 16.395 47.59 29.627l0.026 0.027c14.208 14.208 23.211 28.629 29.653 47.616l4.651 13.653v640l-4.651 13.653c-6.227 18.736-16.43 34.716-29.669 47.59l-0.027 0.026c-20.139 20.096-41.003 30.251-68.523 33.408-8.192 0.939-36.139 1.707-62.123 1.749h-47.232l-0.555 32c-0.64 36.949-1.963 41.6-13.653 48.171-9.899 5.547-27.051 5.547-36.949 0-11.691-6.571-13.013-11.221-13.653-48.171l-0.555-32h-275.968l-0.555 32c-0.64 36.48-2.048 41.728-12.971 47.744-5.895 2.949-12.844 4.676-20.196 4.676-2.662 0-5.272-0.226-7.81-0.661l0.272 0.039zM309.205 788.907c0.64-36.992 2.304-42.667 14.336-48.939 9.216-4.864 26.368-4.864 35.584 0 12.032 6.272 13.696 11.947 14.336 48.939l0.555 32h275.968l0.555-32c0.64-36.992 2.304-42.667 14.336-48.939 9.216-4.864 26.368-4.864 35.584 0 12.032 6.272 13.696 11.947 14.336 49.024l0.555 32.043 54.912-0.469c53.419-0.512 55.125-0.597 62.933-4.48 10.197-5.035 20.523-15.36 25.557-25.557 3.925-7.979 3.968-8.491 4.437-84.395l0.469-76.373h-703.232v74.027c0 80.853 0.085 81.664 10.069 95.275 2.773 3.712 8.064 9.045 11.819 11.776 12.885 9.472 15.317 9.813 73.131 9.941l53.205 0.128 0.555-32zM863.147 360.533l-0.427-204.373-3.968-8.064c-5.632-11.435-17.749-22.784-28.757-26.88-9.131-3.413-12.544-3.456-317.995-3.456s-308.864 0.043-317.995 3.456c-11.008 4.096-23.125 15.445-28.757 26.88l-3.968 8.064-0.427 204.373-0.469 204.373h703.232l-0.469-204.373z" />
<glyph unicode="&#xe90a;" glyph-name="call" d="M190.293 926.72c-24.064-3.371-43.008-13.056-61.611-31.531-15.224-14.629-26.057-33.723-30.392-55.173l-0.114-0.677c-3.371-16.981-3.285-21.291 0.853-50.901 12.715-90.624 35.797-166.741 74.24-244.949 62.805-127.573 156.16-235.52 269.013-310.997 111.232-74.411 218.197-115.584 347.051-133.547 48.896-6.827 77.227 1.152 105.856 29.824 14.336 14.336 21.333 25.557 28.288 45.312 3.797 10.752 3.925 13.227 4.565 83.371 0.512 61.568 0.213 74.325-2.133 85.888-7.36 37.693-33.343 67.985-67.778 81.283l-0.744 0.253c-9.417 2.881-21.217 5.612-33.264 7.614l-1.723 0.236c-31.489 5.182-59.271 12.45-85.983 21.971l3.423-1.064c-23.381 7.851-24.363 8.021-45.227 8.021-36.821 0-54.315-8.064-88.107-40.661-24.32-23.424-18.731-23.125-48.427-2.347-59.185 41.668-108.771 92.45-147.861 150.851l-1.302 2.066-9.557 14.379 19.456 19.883c22.784 23.296 31.787 36.395 38.016 55.381 3.797 11.648 4.48 16.811 4.48 33.408 0 18.987-0.256 20.48-8.661 46.080-11.349 34.475-14.805 48.043-20.736 81.067-2.427 14.518-5.393 26.97-9.098 39.099l0.565-2.15c-11.307 29.867-40.875 56.533-72.832 65.707-8.619 2.432-20.267 2.944-80.043 3.285-38.485 0.256-74.581-0.213-80.213-0.981zM336.64 861.141c16.341-5.845 27.221-19.883 30.251-39.083 5.675-36.139 12.032-62.763 23.339-97.323 6.827-20.864 7.723-25.344 6.997-34.389-0.462-5.981-1.831-11.519-3.972-16.655l0.132 0.356c-1.664-3.243-16.64-19.712-33.323-36.608-41.131-41.643-41.216-42.027-19.371-77.781 54.571-89.301 131.413-165.931 219.264-218.539 34.688-20.779 35.627-20.565 75.691 18.901 18.261 18.005 33.92 31.957 38.485 34.304 12.715 6.528 25.216 5.589 54.187-4.011 28.544-9.515 50.944-15.061 82.944-20.693 25.941-4.523 34.901-8.533 42.965-19.072 9.045-11.904 9.173-13.269 9.216-86.869 0.043-65.024-0.128-68.608-3.413-75.947-7.339-16.213-23.68-27.264-40.32-27.307-11.008 0-47.445 5.333-75.264 11.008-104.491 21.376-206.72 68.096-296.448 135.509-63.621 48.244-117.601 105.020-161.392 169.295l-1.595 2.481c-57.557 85.931-94.507 172.416-113.579 265.728-6.443 31.531-11.435 69.376-10.453 79.232 1.579 15.915 11.563 29.483 26.752 36.352 7.296 3.285 10.923 3.456 75.093 3.413 51.925 0 68.907-0.555 73.813-2.304z" />
<glyph unicode="&#xe90b;" glyph-name="camera" d="M387.883 884.139c-12.331-2.987-12.245-2.901-57.643-69.845l-29.013-42.795-75.093-0.085c-84.779-0.085-89.984-0.597-112.64-11.819-30.569-15.385-52.58-43.921-58.738-77.972l-0.099-0.663c-1.323-7.851-1.749-75.733-1.408-232.96l0.512-221.867 3.797-11.093c11.803-33.495 37.692-59.412 70.362-71.004l0.806-0.249 13.781-4.693h738.987l13.781 4.693c33.443 11.897 59.31 37.792 70.917 70.445l0.251 0.808 3.797 11.093 0.469 221.013c0.341 150.4-0.085 224.768-1.323 232.832-5.837 35.168-27.984 64.159-58.257 79.333l-0.623 0.283c-22.656 11.221-27.861 11.733-112.64 11.819l-75.093 0.085-33.28 48.981c-16.488 24.724-28.773 42.237-41.328 59.541l3.995-5.781c-9.429 11.221-2.219 10.624-136.747 10.965-67.115 0.128-124.501-0.341-127.531-1.067zM646.827 769.451c19.243-28.288 37.376-53.205 40.277-55.424 4.087-2.695 8.885-4.701 14.039-5.718l0.254-0.042c5.248-0.981 43.051-1.707 90.411-1.707h81.323l8.832-4.395c9.594-4.634 17.035-12.462 21.058-22.076l0.105-0.282c3.029-6.869 3.157-15.957 2.731-226.987-0.427-200.832-0.725-220.288-3.285-224.981-5.486-8.621-12.776-15.625-21.378-20.62l-0.297-0.159c-5.973-2.987-21.888-3.115-368.896-3.115s-362.923 0.128-368.896 3.115c-8.898 5.154-16.189 12.157-21.525 20.528l-0.149 0.25c-2.56 4.693-2.859 24.149-3.285 224.981-0.427 211.029-0.299 220.117 2.731 226.987 4.128 9.895 11.569 17.723 20.908 22.246l0.254 0.111 8.832 4.395h81.323c47.36 0 85.163 0.725 90.411 1.707 5.408 1.059 10.207 3.065 14.444 5.853l-0.151-0.093c2.901 2.219 21.035 27.136 40.277 55.424l34.987 51.413h199.68l34.987-51.413zM492.544 670.592c-82.944-7.339-154.325-67.797-176.085-149.163-4.341-15.632-6.836-33.582-6.836-52.115 0-41.281 12.379-79.671 33.627-111.66l-0.465 0.745c12.203-18.816 39.467-46.080 58.283-58.283 31.239-20.821 69.638-33.224 110.933-33.224s79.694 12.403 111.674 33.687l-0.741-0.464c18.816 12.203 46.080 39.467 58.283 58.283 51.669 79.829 42.24 182.4-23.083 250.496-32.813 34.913-78.022 57.844-128.564 61.74l-0.673 0.042c-5.344 0.587-12.369 1.121-19.446 1.46l-0.863 0.033c-0.469-0.128-7.68-0.811-16.043-1.579zM550.997 602.539c21.675-6.229 38.101-15.872 56.363-33.28 19.029-18.133 31.275-37.973 38.144-61.867 5.504-19.2 5.504-56.917 0-76.117-7.125-24.832-19.541-44.459-40.149-63.659-27.008-25.088-56.277-36.523-93.355-36.523s-66.347 11.435-93.355 36.523c-20.608 19.2-33.024 38.827-40.149 63.659-5.504 19.2-5.504 56.917 0 76.117 6.485 22.613 16 38.827 33.579 57.301 19.444 21.187 45.528 36.002 74.938 41.144l0.796 0.115c13.696 2.475 49.152 0.555 63.189-3.413z" />
<glyph unicode="&#xe90c;" glyph-name="category" d="M172.373 903.808c-25.443-7.464-45.024-27.228-52.095-52.244l-0.129-0.535c-3.371-12.715-3.456-238.507-0.085-251.136 6.912-25.771 27.307-46.251 52.907-53.077 12.885-3.456 238.507-3.456 251.392 0 25.6 6.827 45.995 27.307 52.907 53.077 3.371 12.629 3.285 238.421-0.085 251.136-6.827 25.6-27.307 45.995-53.077 52.907-11.989 3.2-240.213 3.072-251.733-0.128zM599.040 903.808c-25.443-7.464-45.024-27.228-52.095-52.244l-0.129-0.535c-3.371-12.715-3.456-238.507-0.085-251.136 6.912-25.771 27.307-46.251 52.907-53.077 12.885-3.456 238.507-3.456 251.392 0 25.6 6.827 45.995 27.307 52.907 53.077 3.371 12.629 3.285 238.421-0.085 251.136-6.827 25.6-27.307 45.995-53.077 52.907-11.989 3.2-240.213 3.072-251.733-0.128zM412.245 838.912l4.181-4.181v-218.795l-8.363-8.363h-218.795l-8.363 8.363v218.795l8.363 8.363h218.795l4.181-4.181zM838.912 838.912l4.181-4.181v-218.795l-8.363-8.363h-218.795l-8.363 8.363v218.795l8.363 8.363h218.795l4.181-4.181zM172.373 477.141c-25.443-7.464-45.024-27.228-52.095-52.244l-0.129-0.535c-3.371-12.715-3.456-238.507-0.085-251.136 6.912-25.771 27.307-46.251 52.907-53.077 12.885-3.456 238.507-3.456 251.392 0 25.6 6.827 45.995 27.307 52.907 53.077 3.371 12.629 3.285 238.421-0.085 251.136-6.827 25.6-27.307 45.995-53.077 52.907-11.989 3.2-240.213 3.072-251.733-0.128zM599.040 477.141c-25.443-7.464-45.024-27.228-52.095-52.244l-0.129-0.535c-3.371-12.715-3.456-238.507-0.085-251.136 6.912-25.771 27.307-46.251 52.907-53.077 12.885-3.456 238.507-3.456 251.392 0 25.6 6.827 45.995 27.307 52.907 53.077 3.371 12.629 3.285 238.421-0.085 251.136-6.827 25.6-27.307 45.995-53.077 52.907-11.989 3.2-240.213 3.072-251.733-0.128zM412.245 412.245l4.181-4.181v-218.795l-8.363-8.363h-218.795l-8.363 8.363v218.795l8.363 8.363h218.795l4.181-4.181zM838.912 412.245l4.181-4.181v-218.795l-8.363-8.363h-218.795l-8.363 8.363v218.795l8.363 8.363h218.795l4.181-4.181z" />
<glyph unicode="&#xe90d;" glyph-name="clock" d="M490.667 969.984c-151.227-7.512-282.424-86.95-360.887-204.571l-1.054-1.679c-36.779-55.893-60.245-117.803-70.955-187.221-5.376-34.944-5.376-94.080 0-129.024 15.659-101.589 59.392-188.757 130.176-259.541 50.054-50.49 111.907-89.2 181.084-111.658l3.193-0.896c21.406-7.422 46.807-13.577 72.978-17.351l2.286-0.271c32.384-4.949 92.459-5.376 123.392-0.853 73.899 10.837 137.173 34.688 195.413 73.643 98.304 65.749 169.173 169.301 193.664 282.923 7.979 37.205 10.112 57.685 10.112 98.517 0 65.365-10.795 119.040-35.883 178.987-53.077 126.677-162.816 223.403-297.472 262.144-38.245 10.926-82.17 17.208-127.563 17.208-6.501 0-12.972-0.129-19.41-0.384l0.925 0.029zM551.509 904.491c138.039-14.424 253.703-98.141 312.694-215.292l1.034-2.265c19.328-39.381 29.952-72.619 37.035-116.053 4.309-26.496 4.309-91.264 0-117.76-14.251-87.211-52.096-160.981-114.091-222.251-28.675-28.97-62.129-53.139-99.096-71.24l-2.152-0.952c-33.28-17.134-71.906-30.048-112.639-36.688l-2.262-0.304c-25.899-4.352-94.165-4.352-120.064 0-42.996 6.944-81.622 19.858-117.116 38.021l2.215-1.029c-74.822 37.563-134.565 95.81-172.961 167.239l-1.034 2.105c-28.643 53.338-45.472 116.703-45.472 183.999 0 94.405 33.118 181.075 88.369 249.026l-0.572-0.726c18.559 21.696 38.177 41.233 59.244 59.116l0.745 0.617c58.069 46.293 132.309 76.928 203.947 84.267 20.821 2.133 61.611 2.219 82.176 0.171zM503.424 798.891c-9.045-1.835-16.64-7.040-19.968-13.739-2.816-5.632-3.072-15.957-3.499-140.544-0.299-90.027 0.128-136.704 1.323-141.141 3.627-13.525 5.376-14.635 103.083-63.403 99.627-49.792 100.437-50.091 113.237-43.477 6.699 3.456 13.44 13.184 16.768 24.192 0.921 2.481 1.454 5.346 1.454 8.336 0 7.092-2.999 13.484-7.798 17.976l-0.014 0.013c-3.285 3.328-34.688 20.053-84.395 44.885l-79.104 39.595-0.469 123.776c-0.427 114.816-0.683 124.16-3.499 129.835-5.248 10.496-22.016 16.683-37.12 13.696z" />
<glyph unicode="&#xe90e;" glyph-name="close" d="M238.080 816.811c-6.827-3.029-17.792-14.208-20.693-21.035-3.243-7.552-2.944-13.525 1.024-21.675 2.261-4.651 42.923-46.464 122.027-125.525l118.613-118.613-120.149-120.32c-129.28-129.536-125.952-125.739-123.179-140.459 2.603-13.909 20.096-29.056 33.408-28.843 4.168 0.127 8.081 1.088 11.62 2.722l-0.185-0.077c2.645 1.408 58.581 56.363 124.288 122.112l119.467 119.595 119.467-119.296c65.707-65.621 122.112-120.619 125.312-122.24 3.512-1.713 7.642-2.715 12.005-2.715 4.186 0 8.156 0.922 11.719 2.573l-0.172-0.072c7.595 3.925 18.773 17.067 21.077 24.789 4.267 14.208 7.125 10.923-123.861 141.867l-120.32 120.32 121.045 121.173c134.059 134.229 128.299 127.488 122.325 143.189-3.072 8.021-15.061 20.437-22.485 23.253-2.738 0.985-5.897 1.554-9.19 1.554-4.218 0-8.218-0.934-11.803-2.608l0.172 0.072c-4.437-1.835-42.88-39.125-125.867-122.027l-119.467-119.339-119.467 119.467c-65.664 65.664-121.856 120.576-124.8 121.984-3.28 1.511-7.117 2.392-11.159 2.392-3.894 0-7.596-0.818-10.946-2.29l0.175 0.068z" />
<glyph unicode="&#xe90f;" glyph-name="diamonds" d="M262.485 926.592c-13.454-2.795-25.254-8.558-35.137-16.588l0.15 0.118c-10.368-9.045-189.611-226.005-194.901-235.904-5.205-9.952-8.259-21.738-8.259-34.238 0-12.4 3.006-24.099 8.328-34.406l-0.197 0.42c6.528-12.203 421.632-503.339 433.963-513.408 27.947-22.869 70.997-20.48 97.237 5.333 15.829 15.616 422.229 498.176 427.435 507.52 11.349 20.48 11.435 47.829 0.299 68.779-5.291 9.899-184.533 226.859-194.901 235.904-10.101 8.28-22.5 14.133-36.098 16.488l-0.468 0.067c-14.251 2.091-483.371 1.963-497.451-0.085zM350.165 768l-31.872-95.573h-102.827c-56.533 0-102.827 0.384-102.827 0.896 0 1.237 153.515 185.557 156.715 188.117 2.005 1.621 16.213 2.133 57.643 2.133h54.997l-31.829-95.573zM606.165 768l31.829-95.573h-251.989l31.829 95.573 31.872 95.573h124.587l31.872-95.573zM754.432 861.397c3.115-2.432 156.928-186.795 156.928-188.075 0-0.512-46.293-0.896-102.827-0.896h-102.827l-31.872 95.573-31.829 95.573 54.869-0.043c40.491-0.043 55.595-0.597 57.557-2.133zM385.28 406.699c40.533-121.728 65.707-199.595 63.787-197.547-1.749 1.835-77.099 90.88-167.509 197.888-1226.092 1480.295-1280.69 1544.621-1335.296 1608.941l1168.426-1411.394c-2.432 2.859 2.475 2.987 100.523 2.987h103.083l66.987-200.875zM575.445 419.84c-34.432-103.253-62.976-187.733-63.445-187.733s-29.013 84.48-63.445 187.733l-62.549 187.733h251.989l-62.549-187.733zM909.312 604.587c-1.451-1.664-76.928-90.923-167.723-198.4-176.306-211.552-231.062-275.95-285.897-340.278l118.43 142.39c-1.28-1.365 27.819 87.936 64.64 198.4l66.944 200.875h103.083c98.048 0 102.955-0.128 100.523-2.987z" />
<glyph unicode="&#xe910;" glyph-name="document" d="M239.659 969.259c-24.875-2.901-46.848-13.952-66.219-33.323-13.266-12.9-23.469-28.88-29.457-46.79l-0.239-0.826-4.651-13.653v-725.333l4.651-13.653c6.443-18.987 15.445-33.408 29.653-47.616s28.629-23.211 47.616-29.653l13.653-4.651h554.667l13.653 4.651c18.737 6.205 34.719 16.395 47.59 29.627l0.026 0.027c14.208 14.208 23.211 28.629 29.653 47.616l4.651 13.653 0.512 247.467c0.341 186.795 0 249.259-1.536 254.805-1.403 4.736-3.949 8.772-7.324 11.933l-0.015 0.014c-12.843 11.136-291.627 290.091-294.229 294.357-3.020 3.764-6.798 6.791-11.116 8.877l-0.191 0.083-8.491 4.224-155.392-0.213c-85.461-0.128-160.853-0.853-167.467-1.621zM522.624 767.573c0.469-136.363 0.512-138.795 4.011-145.365 2.38-4.364 5.876-7.86 10.109-10.174l0.131-0.066c6.571-3.499 9.003-3.541 145.365-4.011l138.709-0.469-0.469-225.664-0.427-225.664-3.968-8.064c-5.632-11.435-17.749-22.784-28.757-26.88-9.088-3.413-12.672-3.456-275.328-3.456s-266.24 0.043-275.328 3.456c-11.008 4.096-23.125 15.445-28.757 26.88l-3.968 8.064-0.469 352.427c-0.384 264.363 0 354.261 1.493 359.68 3.968 14.507 18.475 29.867 33.365 35.328 5.461 2.005 30.464 2.432 145.195 2.517l138.624 0.128 0.469-138.667zM681.813 766.293l93.867-93.867h-188.587v93.867c0 51.627 0.213 93.867 0.427 93.867 0.256 0 42.667-42.24 94.293-93.867z" />
<glyph unicode="&#xe911;" glyph-name="edit" d="M846.123 983.083c-20.864-3.797-38.059-11.989-55.936-26.624-13.611-11.136-417.024-414.891-419.584-419.925-2.731-5.333-46.336-180.693-46.336-186.197 0.043-15.019 10.709-29.824 23.125-32.171 5.547-1.024 21.504 2.389 91.221 19.712 46.464 11.563 89.088 22.4 94.72 24.149l10.24 3.115 427.008 427.605 7.040 14.507c15.701 32.427 16.981 68.779 3.584 102.656-12.715 32.384-45.483 61.141-80.683 70.827-10.752 2.987-43.392 4.395-54.4 2.347zM889.984 916.352c18.219-6.827 33.195-26.496 35.883-47.104 1.408-10.923-1.451-25.429-6.912-35.115-2.389-4.309-86.272-89.387-206.805-209.835l-202.709-202.581-54.187-13.525c-33.28-8.32-54.187-12.8-54.144-11.605 0.043 1.067 6.101 26.069 13.525 55.595l13.483 53.632 201.941 201.813c187.861 187.733 202.709 202.197 213.035 207.061 7.493 3.446 16.258 5.455 25.492 5.455 7.68 0 15.036-1.39 21.829-3.932l-0.43 0.141zM159.573 891.52c-10.154-2.618-18.954-5.901-27.299-9.973l0.846 0.373c-11.733-5.76-17.451-10.027-30.037-22.571-12.843-12.757-16.811-18.048-22.699-30.165-13.056-27.008-12.203-2.133-11.733-356.011 0.469-303.573 0.597-317.397 3.627-326.4 13.909-41.173 45.397-71.125 85.589-81.408 11.264-2.901 29.824-3.072 326.827-3.072h314.88l13.739 3.925c41.301 11.819 74.24 45.952 83.797 86.784 2.944 12.501 3.157 24.064 3.157 174.677v161.28l-4.011 6.997c-5.376 9.387-12.032 12.971-25.685 13.867-9.387 0.597-12.544 0.043-18.859-3.243-4.324-2.32-7.996-5.257-11.055-8.745l-0.038-0.044c-3.456-4.779-3.499-6.656-4.352-168.107l-0.853-163.285-3.84-7.808c-5.931-12.032-14.933-21.376-25.643-26.667l-9.771-4.779-308.651-0.427c-338.176-0.512-317.909-1.067-332.288 9.515-8.551 6.289-15.229 14.653-19.354 24.364l-0.144 0.382c-2.432 6.4-2.645 38.059-2.219 320.299l0.469 313.173 4.608 7.808c5.077 8.661 15.189 18.517 23.893 23.253 5.291 2.901 15.616 3.115 168.619 3.925 154.923 0.811 163.285 1.024 169.429 4.053 10.368 5.163 13.952 11.733 14.635 26.965 0.512 11.051 0 14.165-3.157 19.797-2.341 3.992-5.402 7.311-9.032 9.876l-0.098 0.066c-5.163 3.115-11.264 3.243-168.363 3.541-138.283 0.256-164.779-0.085-174.933-2.219z" />
<glyph unicode="&#xe912;" glyph-name="eye" d="M494.933 841.941c-19.797-0.939-44.501-3.925-62.123-7.509-129.792-26.283-252.245-118.699-348.757-263.211-21.461-32.128-31.147-50.688-31.147-59.605 0-8.619 9.557-26.581 31.701-59.648 22.997-34.304 39.936-56.405 65.152-85.035 91.776-104.277 195.755-165.632 308.48-182.016 40.107-5.803 99.84-3.413 139.051 5.589 129.664 29.824 247.125 119.595 341.973 261.333 21.461 32.085 31.829 51.669 31.829 60.16s-10.368 28.075-31.829 60.16c-96.299 143.915-218.539 236.075-347.904 262.229-25.187 4.915-54.15 7.727-83.769 7.727-4.451 0-8.887-0.064-13.308-0.19l0.65 0.015zM567.467 774.059c97.92-17.451 189.056-75.477 269.525-171.648 24.277-28.971 64.128-85.163 64.128-90.411 0-1.109-5.845-10.88-13.013-21.717-69.845-105.728-158.933-184.576-248.96-220.245-61.781-24.491-131.029-30.933-193.707-18.005-102.059 21.035-199.637 89.856-281.6 198.741-17.365 23.040-40.96 58.325-40.96 61.227 0 1.109 5.675 10.624 12.629 21.12 60.203 91.179 134.571 162.773 210.944 203.008 43.179 22.784 83.456 35.072 134.827 41.088 13.44 1.579 71.467-0.555 86.187-3.157zM494.72 670.635c-19.627-2.133-32.981-6.059-51.84-15.232-45.227-21.931-74.24-58.027-86.613-107.563-2.401-10.773-3.777-23.146-3.777-35.84s1.376-25.067 3.986-36.978l-0.209 1.138c7.808-31.275 21.035-54.912 43.008-76.885 31.147-31.147 68.523-46.592 112.725-46.592s81.579 15.445 112.725 46.592c31.147 31.147 46.592 68.523 46.592 112.725 0 67.797-39.509 124.757-104.149 149.973-18.816 7.381-49.963 11.093-72.448 8.661zM535.723 604.928c16.128-3.797 30.165-11.989 43.691-25.515 19.371-19.371 28.117-40.32 28.117-67.413s-8.747-48.043-28.117-67.413c-19.456-19.456-40.277-28.16-67.413-28.16s-47.957 8.704-67.413 28.16c-19.371 19.371-28.117 40.32-28.117 67.413s8.747 48.043 28.117 67.413c13.227 13.227 27.563 21.717 42.88 25.472 7.286 1.54 15.657 2.422 24.234 2.422 8.501 0 16.8-0.866 24.813-2.515l-0.791 0.136z" />
<glyph unicode="&#xe913;" glyph-name="facebook" d="M582.827 936.875c-80.896-11.136-134.144-59.477-152.021-137.984-5.632-24.661-7.509-54.357-7.552-118.357v-54.187h-124.587v-151.893h126.293v-389.12h151.893v389.12h125.525l8.96 72.96c4.949 40.149 8.96 74.325 8.917 75.947-0.043 2.816-4.608 2.987-71.808 2.987h-71.765l0.555 63.573c0.683 73.643 0.811 74.368 15.872 89.429 6.997 6.997 11.307 9.643 20.608 12.715 10.88 3.584 15.488 3.925 61.696 4.565l49.963 0.683-0.469 67.712-0.427 67.669-22.187 2.005c-31.019 2.773-105.088 4.139-119.467 2.176z" />
<glyph unicode="&#xe914;" glyph-name="fax" d="M285.909 969.173c-7.376-1.315-13.96-3.449-20.111-6.349l0.484 0.205c-11.307-5.632-28.843-22.443-34.048-32.683-8.235-16.085-8.619-22.229-8.619-144l-0.043-113.92h-26.027c-58.283-0.043-81.835-7.595-109.44-35.157-13.266-12.9-23.469-28.88-29.457-46.79l-0.239-0.826-4.651-13.653v-256l4.651-13.653c6.443-18.987 15.445-33.408 29.653-47.616 14.336-14.336 28.843-23.339 47.616-29.483 12.629-4.181 16.427-4.565 50.688-5.291l37.077-0.768 0.469-74.453c0.512-71.467 0.64-74.752 4.053-81.195 2.38-4.364 5.876-7.86 10.109-10.174l0.131-0.066c6.699-3.541 7.211-3.541 273.792-3.541s267.093 0 273.792 3.541c4.364 2.38 7.86 5.876 10.174 10.109l0.066 0.131c3.413 6.443 3.541 9.728 4.053 81.195l0.469 74.453 37.077 0.768c34.261 0.725 38.059 1.109 50.688 5.291 18.773 6.144 33.28 15.147 47.616 29.483 14.208 14.208 23.211 28.629 29.653 47.616l4.651 13.653v256l-4.651 13.653c-6.227 18.736-16.43 34.716-29.669 47.59l-0.027 0.026c-27.605 27.563-51.157 35.115-109.44 35.157h-26.027l-0.043 113.92c0 121.771-0.384 127.915-8.619 144-5.205 10.24-22.741 27.051-34.005 32.64-6.168 2.811-13.337 5.010-20.831 6.246l-0.502 0.068c-14.891 2.133-435.84 2.048-450.517-0.128zM732.459 903.424c2.944-2.688 3.115-8.576 3.115-116.907v-114.091h-447.147v113.792c0 103.467 0.256 114.048 2.816 116.907 2.731 2.987 11.776 3.115 220.459 3.115 200.107 0 217.899-0.213 220.757-2.816zM875.861 602.752c10.197-5.035 20.523-15.36 25.557-25.557l3.968-8.021v-242.347l-3.968-8.064c-5.632-11.435-17.749-22.784-28.757-26.88-8.021-2.987-13.312-3.456-40.661-3.456h-31.445l-0.469 74.667c-0.597 84.608-0.384 83.328-13.781 91.008l-7.211 4.139h-534.187l-7.211-4.139c-13.397-7.68-13.184-6.4-13.781-91.008l-0.469-74.667h-31.445c-27.349 0-32.64 0.469-40.661 3.456-11.008 4.096-23.125 15.445-28.757 26.88l-3.968 8.064-0.512 117.76c-0.341 86.144 0.043 119.723 1.536 125.013 3.968 14.507 18.475 29.867 33.365 35.328 5.589 2.048 59.477 2.389 360.704 2.091l354.133-0.299 8.021-3.968zM735.573 256v-138.24h-447.147v276.48h447.147v-138.24z" />
<glyph unicode="&#xe915;" glyph-name="filter" d="M119.424 884.181c-9.088-1.792-16.64-6.997-19.925-13.696-3.669-7.509-3.925-24.789-0.427-31.061 1.365-2.475 70.272-83.627 153.088-180.352l150.613-175.915v-119.125c0-81.877 0.597-121.259 1.92-125.952 3.925-14.293 3.712-14.123 91.435-57.429 45.44-22.4 85.632-41.429 89.429-42.24 1.81-0.464 3.888-0.731 6.028-0.731 7.439 0 14.126 3.222 18.742 8.346l0.020 0.023c11.307 11.947 10.88 5.12 10.88 179.456v157.696l150.613 175.872c82.816 96.725 151.936 177.92 153.515 180.395 1.846 3.278 3.217 7.093 3.897 11.143l0.029 0.206c2.005 13.013-11.093 29.909-25.813 33.323-7.723 1.792-774.912 1.835-784.043 0.043zM745.344 726.613l-133.077-155.435c-37.291-43.477-52.907-62.933-54.144-67.413-1.109-4.011-1.749-55.467-1.749-144.085v-137.813l-88.747 44.373v115.627c0 73.6-0.64 117.931-1.749 121.899-1.28 4.523-19.371 26.837-64.384 79.36l-203.52 237.781h628.053l-80.683-94.293z" />
<glyph unicode="&#xe916;" glyph-name="gallery" d="M196.992 926.592c-24.875-2.901-46.848-13.952-66.219-33.323-13.266-12.9-23.469-28.88-29.457-46.79l-0.239-0.826-4.651-13.653v-640l4.651-13.653c2.56-7.509 7.552-18.56 11.093-24.576 8.235-13.995 27.605-33.323 41.6-41.6 11.349-6.699 31.403-13.44 47.616-15.957 5.163-0.811 149.163-1.109 320-0.64l310.613 0.853 13.653 4.651c18.737 6.205 34.719 16.395 47.59 29.627l0.026 0.027c14.251 14.251 23.253 28.715 29.611 47.616l4.565 13.653 0.939 96.427c0.469 53.035 0.512 197.035 0.043 320l-0.853 223.573-4.651 13.653c-6.227 18.736-16.43 34.716-29.669 47.59l-0.027 0.026c-20.139 20.096-41.003 30.251-68.523 33.408-18.176 2.091-609.835 2.005-627.712-0.085zM833.195 858.752c10.197-5.035 20.523-15.36 25.557-25.557l3.968-8.021 0.469-181.76 0.427-181.717-83.2 83.029c-71.851 71.637-84.224 83.328-90.496 85.163-16.213 4.736 1.195 20.821-255.019-235.221l-233.301-233.131-6.699 2.005c-8.149 2.432-17.963 10.027-24.491 18.901-10.667 14.507-9.984-8.32-9.984 329.557 0 338.261-0.725 315.051 10.069 329.728 5.973 8.107 16.213 15.915 25.173 19.2 5.589 2.048 53.504 2.389 318.037 2.091l311.467-0.299 8.021-3.968zM346.581 755.925c-17.707-2.304-37.504-12.843-52.053-27.691-29.525-30.080-36.309-72.021-17.707-110.037 7.595-15.616 27.093-35.115 42.709-42.709 38.443-18.816 80.341-11.819 110.592 18.389 24.277 24.277 33.451 54.656 26.453 87.552-8.107 38.229-41.685 69.547-79.957 74.581-14.677 1.92-14.379 1.92-30.037-0.085zM375.979 690.133c10.863-5.022 18.264-15.825 18.264-28.358 0-0.155-0.001-0.311-0.003-0.466v0.023c0-19.115-14.848-32.64-34.261-31.232-39.68 2.859-37.461 62.421 2.347 62.72 0.050 0 0.11 0 0.17 0 4.865 0 9.5-0.988 13.714-2.775l-0.23 0.087zM773.589 461.184l90.069-90.069-0.939-172.288-3.968-8.064c-5.632-11.435-17.749-22.784-28.757-26.88-9.088-3.413-12.672-3.456-274.091-3.456h-264.917l195.413 195.413c64.759 65.029 128.706 128.706 192.919 192.114l3.348 3.299c0.469 0 41.387-40.533 90.923-90.069z" />
<glyph unicode="&#xe917;" glyph-name="gps" d="M502.912 969.472c-8.256-1.688-15.068-6.807-18.999-13.769l-0.073-0.14c-3.115-5.333-3.456-9.472-3.968-49.493l-0.597-43.648-16.469-2.133c-40.522-5.913-77.095-17.771-110.62-34.77l2.033 0.935c-102.315-51.115-176-153.771-190.507-265.259l-2.133-16.469-43.648-0.597c-40.021-0.512-44.16-0.853-49.493-3.968-11.648-6.869-16.896-20.395-13.952-36.053 1.271-8.769 6.514-16.095 13.813-20.195l0.139-0.072c5.333-3.115 9.472-3.456 49.493-3.968l43.648-0.597 2.133-16.469c17.963-138.197 124.075-256.896 260.395-291.328 12.203-3.072 29.611-6.571 38.699-7.765l16.469-2.133 0.597-43.648c0.512-40.021 0.853-44.16 3.968-49.493 6.869-11.648 20.395-16.896 36.053-13.952 8.769 1.271 16.095 6.514 20.195 13.813l0.072 0.139c3.115 5.333 3.456 9.472 3.968 49.493l0.597 43.648 16.469 2.133c96.512 12.501 188.373 70.4 244.053 153.899 27.776 41.643 48.811 97.109 55.040 145.195l2.133 16.469 43.648 0.597c40.021 0.512 44.16 0.853 49.493 3.968 7.438 4.171 12.681 11.498 13.934 20.118l0.018 0.149c2.944 15.659-2.304 29.184-13.952 36.053-5.333 3.115-9.472 3.456-49.493 3.968l-43.648 0.597-2.133 16.469c-4.779 36.779-18.56 79.445-37.035 114.475-52.693 100.053-152.576 170.368-262.187 184.619l-16.64 2.176-0.085 38.528c-0.085 41.557-1.109 50.944-6.315 57.899-6.741 9.088-20.949 13.355-35.115 10.581zM553.813 796.8c103.211-15.189 192.299-87.296 227.925-184.491 11.119-28.706 17.56-61.927 17.56-96.653 0-1.286-0.009-2.569-0.026-3.85l0.002 0.194c0.015-1.087 0.024-2.371 0.024-3.656 0-34.726-6.442-67.947-18.196-98.534l0.635 1.881c-30.12-78.447-90.982-139.309-167.443-168.757l-1.986-0.673c-28.706-11.119-61.927-17.56-96.653-17.56-1.286 0-2.569 0.009-3.85 0.026l0.194-0.002c-28.501 0-44.544 1.92-69.973 8.32-52.597 13.018-97.778 39.558-133.156 75.725l-0.049 0.051c-45.056 45.056-72.021 98.688-81.963 163.072-2.731 17.579-2.731 62.635 0 80.213 9.941 64.384 36.907 118.016 81.963 163.072 50.219 50.219 110.848 77.909 184.405 84.224 11.221 0.939 46.763-0.597 60.587-2.603zM494.72 670.635c-44.697-5.066-83.273-27.807-109.129-60.955l-0.268-0.357c-10.155-13.355-24.021-41.301-27.691-55.723-3.070-12.496-4.832-26.843-4.832-41.6s1.761-29.104 5.085-42.84l-0.253 1.24c3.669-14.421 17.536-42.368 27.691-55.723 15.616-20.565 34.859-35.712 60.629-47.744 19.162-9.079 41.633-14.379 65.341-14.379 5.735 0 11.397 0.31 16.971 0.915l-0.69-0.061c18.6 1.412 35.76 6.252 51.296 13.89l-0.822-0.365c36.48 17.024 59.989 40.107 77.355 75.947 8.277 15.531 13.728 33.754 15.162 53.094l0.027 0.453c0.544 4.884 0.854 10.546 0.854 16.281 0 23.708-5.301 46.178-14.781 66.29l0.402-0.949c-18.773 40.192-48.128 67.627-89.899 83.925-18.816 7.381-49.963 11.093-72.448 8.661zM536.491 604.885c16.043-4.139 29.739-12.245 42.923-25.472 19.456-19.456 28.16-40.277 28.16-67.413s-8.704-47.957-28.16-67.413c-19.456-19.456-40.277-28.16-67.413-28.16s-47.957 8.704-67.413 28.16c-19.456 19.456-28.16 40.277-28.16 67.413s8.704 47.957 28.16 67.413c19.584 19.541 39.083 27.819 66.304 28.032 8.661 0.085 19.627-1.024 25.6-2.56z" />
<glyph unicode="&#xe918;" glyph-name="import" d="M483.797 928.64c-7.483-1.841-13.654-6.481-17.466-12.719l-0.070-0.124c-2.688-4.907-2.944-22.229-3.371-228.779l-0.427-223.531-83.2 82.987c-71.765 71.637-84.139 83.285-90.411 85.12-9.771 2.859-18.944 0.043-28.587-8.832-12.331-11.392-15.744-23.083-10.069-34.475 1.493-2.987 50.859-53.888 109.653-113.109 36.252-36.328 72.602-73.111 108.774-110.070l2.757-2.826c4.523-5.12 17.28-10.752 24.277-10.667 10.581 0.043 19.413 8.149 130.816 120.277 122.667 123.477 118.4 118.443 114.176 134.187-2.517 9.259-15.829 22.656-25.344 25.515-15.232 4.565-13.227 6.187-104.747-85.163l-83.2-83.029-0.043 218.453c-0.043 124.971-0.683 221.269-1.579 225.109-1.675 7.886-6.476 14.419-13.015 18.361l-0.126 0.071c-5.803 3.413-21.376 5.163-28.8 3.243zM99.627 416.597c-7.893-2.005-15.232-7.851-17.92-14.208-1.92-4.565-2.347-24.576-2.347-107.136 0-93.696 0.256-102.315 3.115-111.701 11.947-38.613 40.32-67.712 78.805-80.768l13.653-4.651h636.587l13.653 3.925c20.693 5.973 33.707 14.037 51.243 31.744 11.819 11.904 16.853 18.517 21.632 28.331 12.331 25.301 12.117 22.912 12.885 126.293 0.384 51.157 0.213 97.024-0.427 101.888-2.219 17.963-12.928 26.88-32.427 26.88-9.6 0-13.312-0.811-18.432-3.968-12.715-7.851-12.203-3.2-13.141-112.853-0.853-97.963-0.853-98.133-4.779-106.837-5.85-11.374-14.747-20.476-25.618-26.419l-0.324-0.162-7.68-3.968-310.912-0.427c-310.869-0.469-310.955-0.469-320.384 3.072-12.259 5.324-22.122 14.251-28.475 25.433l-0.154 0.295-3.968 7.467-0.853 98.987c-0.896 103.595-0.768 102.059-8.32 110.677-6.315 7.211-23.552 11.136-35.413 8.107z" />
<glyph unicode="&#xe919;" glyph-name="info" d="M490.667 969.984c-151.227-7.512-282.424-86.95-360.887-204.571l-1.054-1.679c-36.779-55.893-60.245-117.803-70.955-187.221-5.376-34.944-5.376-94.080 0-129.024 15.659-101.589 59.392-188.757 130.176-259.541 50.054-50.49 111.907-89.2 181.084-111.658l3.193-0.896c21.406-7.422 46.807-13.577 72.978-17.351l2.286-0.271c32.384-4.949 92.459-5.376 123.392-0.853 73.899 10.837 137.173 34.688 195.413 73.643 98.304 65.749 169.173 169.301 193.664 282.923 7.979 37.205 10.112 57.685 10.112 98.517 0 65.365-10.795 119.040-35.883 178.987-53.077 126.677-162.816 223.403-297.472 262.144-38.245 10.926-82.17 17.208-127.563 17.208-6.501 0-12.972-0.129-19.41-0.384l0.925 0.029zM551.509 904.491c138.039-14.424 253.703-98.141 312.694-215.292l1.034-2.265c19.328-39.381 29.952-72.619 37.035-116.053 4.309-26.496 4.309-91.264 0-117.76-14.251-87.211-52.096-160.981-114.091-222.251-28.675-28.97-62.129-53.139-99.096-71.24l-2.152-0.952c-33.28-17.134-71.906-30.048-112.639-36.688l-2.262-0.304c-25.899-4.352-94.165-4.352-120.064 0-42.996 6.944-81.622 19.858-117.116 38.021l2.215-1.029c-74.822 37.563-134.565 95.81-172.961 167.239l-1.034 2.105c-28.643 53.338-45.472 116.703-45.472 183.999 0 94.405 33.118 181.075 88.369 249.026l-0.572-0.726c18.559 21.696 38.177 41.233 59.244 59.116l0.745 0.617c58.069 46.293 132.309 76.928 203.947 84.267 20.821 2.133 61.611 2.219 82.176 0.171zM503.424 713.557c-15.787-3.2-22.869-12.757-22.955-30.891-0.085-21.675 10.069-31.573 32.384-31.573 13.867 0 22.827 4.352 27.733 13.397 4.011 7.381 4.011 28.971 0 36.352-5.504 10.24-21.931 15.829-37.163 12.715zM503.424 585.557c-9.045-1.835-16.64-7.040-19.968-13.739-2.816-5.632-3.029-14.677-3.029-123.819 0-115.669 0.043-117.888 3.541-124.459 4.907-9.387 13.867-13.781 28.032-13.781s23.125 4.395 28.032 13.781c3.499 6.571 3.541 8.789 3.541 124.459 0 109.653-0.213 118.187-3.029 123.861-5.248 10.496-22.016 16.683-37.12 13.696z" />
<glyph unicode="&#xe91a;" glyph-name="instagram" d="M371.413 894.080c-71.296-2.859-110.933-13.013-148.267-37.845-46.123-30.72-75.435-76.075-86.656-134.144-6.955-36.139-7.637-54.357-7.637-210.091s0.683-173.952 7.637-210.091c10.88-56.277 38.613-100.48 82.603-131.499 31.701-22.4 67.029-33.835 121.387-39.339 31.445-3.157 311.339-3.157 343.040 0 78.336 7.851 128.512 32.683 165.632 82.091 25.728 34.261 37.931 69.717 43.776 127.317 3.157 31.445 3.157 311.339 0 343.040-3.84 38.357-12.373 72.832-23.552 95.104-21.382 41.359-55.117 73.815-96.273 93.038l-1.263 0.53c-32.128 14.165-62.72 19.499-126.72 22.101-48.427 1.963-223.957 1.835-273.707-0.213zM670.72 824.491c41.131-4.309 60.885-9.003 80.213-19.029 23.296-12.16 42.411-31.275 54.613-54.741 17.664-33.963 21.973-80.427 22.016-237.867 0.043-196.565-5.675-230.315-45.867-270.635-30.848-30.976-57.173-39.509-136.96-44.331-39.168-2.389-272.768-1.152-295.723 1.579-62.549 7.381-91.52 20.352-117.035 52.437-30.507 38.315-35.669 76.117-35.669 260.096 0 159.275 3.968 203.307 21.461 237.909 17.92 35.456 50.56 59.904 91.136 68.224 18.475 3.755 41.557 6.357 70.827 7.893 36.907 1.963 269.269 0.725 290.987-1.536zM703.787 761.131c-11.313-4.092-20.527-11.705-26.54-21.495l-0.127-0.223c-10.624-18.987-7.168-40.619 8.832-55.595 8.052-7.933 19.112-12.832 31.316-12.832 17.732 0 33.049 10.341 40.248 25.321l0.116 0.268c3.276 6.063 5.201 13.272 5.201 20.93 0 24.184-19.199 43.883-43.186 44.689l-0.074 0.002c-1.169 0.082-2.533 0.128-3.908 0.128-4.205 0-8.308-0.435-12.267-1.263l0.388 0.068zM475.563 705.664c-58.581-11.051-112.043-50.688-138.197-102.357-29.013-57.472-30.037-119.381-2.816-176.384 10.837-22.656 20.907-36.779 39.168-54.869 102.827-101.931 278.101-60.544 324.523 76.672 7.253 21.376 10.027 38.827 10.027 63.275s-2.773 41.899-10.027 63.275c-21.686 62.271-71.889 109.577-134.548 126.821l-1.388 0.326c-14.421 3.84-21.291 4.651-45.184 5.163-19.968 0.427-32.043-0.128-41.557-1.92zM544.427 635.861c5.163-1.408 16.683-6.187 25.6-10.581 13.611-6.741 18.731-10.539 31.701-23.552 13.099-13.056 16.768-18.048 23.467-31.701 10.965-22.315 13.781-34.176 13.781-58.027 0-23.68-2.816-35.712-13.44-57.387-14.225-27.402-36.996-48.711-64.729-60.728l-0.85-0.328c-14.197-5.976-30.7-9.449-48.015-9.449-34.899 0-66.502 14.107-89.419 36.93l0.004-0.004c-23.631 23.14-38.28 55.371-38.28 91.024 0 35.252 14.323 67.16 37.466 90.22l0.004 0.004c16.085 16.085 41.088 29.952 61.355 34.091 5.12 1.024 10.837 2.261 12.715 2.688 6.485 1.493 39.296-0.683 48.64-3.2z" />
<glyph unicode="&#xe91b;" glyph-name="languages" d="M463.36 936.149c-61.824-8.875-107.008-23.253-153.6-48.939-42.923-23.637-72.32-45.696-102.613-76.971-70.443-72.704-111.616-161.451-120.235-258.987-2.432-27.605-1.152-78.421 2.645-104.107 14.933-101.248 72.192-201.387 151.808-265.643 45.525-36.779 107.819-68.48 162.176-82.603 43.008-11.179 55.424-12.629 108.459-12.629 43.733 0 50.773 0.427 69.973 4.011 93.952 17.536 172.544 59.221 237.227 125.824 51.84 53.419 84.992 111.573 105.131 184.704 9.984 36.309 12.885 56.619 13.867 97.579 1.28 53.035-2.219 83.029-15.147 128.811-46.421 164.736-189.099 287.445-358.144 308.011-25.643 3.115-82.56 3.627-101.547 0.939zM538.24 884.395c26.24-11.563 49.109-37.547 72.448-82.261 10.112-19.371 27.904-62.379 30.080-72.747 1.493-7.040 1.152-7.125-44.672-9.173-66.133-2.944-208.469-0.896-212.437 3.072-2.987 2.987 18.304 59.861 31.445 83.968 18.347 33.707 44.971 63.915 66.176 75.136 8.882 4.699 19.415 7.458 30.593 7.458 9.533 0 18.597-2.007 26.793-5.62l-0.426 0.167zM386.688 852.864c-20.651-33.707-35.115-65.621-47.957-105.771l-6.443-20.053h-6.4c-14.677 0-111.061 11.691-113.237 13.739-2.133 2.005 5.035 11.136 25.387 32.171 40.747 42.24 82.133 69.973 137.899 92.373 11.477 4.651 21.077 7.765 21.333 7.040 0.256-0.768-4.48-9.557-10.581-19.499zM652.373 863.787c28.843-11.52 61.696-30.080 88.192-49.749 26.411-19.541 76.245-70.869 71.424-73.472-4.053-2.219-99.968-13.525-114.773-13.525h-5.717l-8.96 26.88c-15.275 45.952-27.435 72.491-46.891 102.357-5.12 7.851-9.301 14.933-9.301 15.829 0 1.664 5.163 0 26.027-8.32zM214.229 691.285c13.099-1.835 41.216-5.291 62.421-7.637 21.205-2.389 39.893-4.821 41.472-5.419 2.091-0.811 2.645-2.347 1.963-5.589-4.48-21.077-11.691-82.347-13.909-117.547l-1.152-19.2h-85.973c-67.627 0-85.931 0.469-85.931 2.133 0 1.152 1.579 12.757 3.499 25.685 4.333 29.826 11.215 56.551 20.61 82.061l-0.898-2.786c6.144 16.469 19.456 44.971 23.083 49.365 2.517 2.987 6.613 2.859 34.816-1.067zM845.269 691.627c3.285-3.627 17.92-35.84 24.064-52.992 8.32-23.168 16-58.027 20.693-93.781l1.195-8.96h-172.715v7.253c-0.043 20.48-10.539 113.707-14.72 130.347-0.597 2.389 0.085 3.968 1.963 4.693 1.579 0.597 23.339 3.413 48.341 6.272s51.627 6.187 59.136 7.467c20.096 3.328 28.8 3.243 32.043-0.299zM515.413 672.469c1.387 0 3.031-0.001 4.675-0.001 40.915 0 81.791 0.171 122.626 0.511l-6.255-0.041 17.792 0.341 1.408-5.12c4.224-15.573 13.355-96.213 13.355-117.973v-14.293h-314.539l1.024 25.173c1.28 31.275 9.771 100.181 13.824 112.213 0.384 1.152 7.851 1.28 21.717 0.427 11.605-0.725 67.584-1.28 124.373-1.237zM306.987 457.813c2.261-30.592 9.173-88.619 12.16-102.016 1.067-4.736 1.195-8.832 0.341-9.685-0.811-0.811-10.667-2.603-21.845-3.925l-64.683-7.936c-6.787-1.13-23.471-3.107-40.218-4.87l-8.422-0.719c-3.712-0.128-5.376 2.176-13.909 19.2-11.434 23.468-21.236 50.886-27.998 79.48l-0.546 2.739c-2.645 12.672-8.747 51.2-8.747 55.509 0 0.469 38.656 0.811 85.888 0.811h85.888l2.091-28.587zM669.013 472.747c0-24.661-11.52-119.851-14.933-123.051-0.683-0.683-14.72-0.597-31.147 0.213-39.979 1.963-184.576 1.963-221.867 0-16.427-0.853-30.421-1.024-31.104-0.341-3.2 3.2-12.715 77.312-14.677 114.56l-1.152 22.272h314.88v-13.653zM889.984 478.293c-7.253-54.443-17.024-89.685-35.883-129.707-5.163-10.923-9.643-20.096-9.984-20.437s-11.648 0.896-25.131 2.773c-3.417 0.919-24.669 3.659-45.981 6.202l-16.099 1.564c-57.472 6.613-52.053 5.419-52.053 11.435 0 2.816 1.877 18.304 4.181 34.432 4.565 31.616 9.472 80.384 9.472 93.611v8.235h172.587l-1.109-8.107zM614.059 302.123c14.336-0.725 26.496-1.749 27.008-2.261 1.365-1.365-12.032-39.808-20.949-60.203-10.014-22.53-21.395-41.905-34.647-59.812l0.599 0.847c-60.032-78.037-124.459-59.435-177.92 51.413-11.691 24.192-22.613 51.712-24.96 62.677-0.981 4.779-0.64 5.589 2.816 6.357 16.299 3.712 163.499 4.352 228.053 0.981zM336 284.16c17.792-52.139 35.072-90.923 52.309-117.419 5.376-8.235 9.387-15.36 8.875-15.872-1.493-1.493-40.448 14.507-59.264 24.405-19.541 10.24-41.131 23.851-57.173 36.096-21.675 16.469-71.637 68.267-68.693 71.211 2.261 2.261 105.557 14.464 116.48 13.739 2.645-0.171 4.352-2.944 7.467-12.16zM768 289.323c39.125-4.779 44.373-5.675 44.373-7.723 0-5.931-55.083-60.544-76.288-75.605-19.883-14.123-43.093-27.861-62.805-37.163-17.536-8.277-46.933-19.285-46.933-17.621 0 0.555 4.949 9.173 11.051 19.243 18.944 31.36 40.491 79.616 50.347 112.683l3.755 12.629 20.736-1.067c11.435-0.597 36.523-3.029 55.765-5.376z" />
<glyph unicode="&#xe91c;" glyph-name="line" d="M468.48 894.037c-117.035-9.259-226.517-59.776-298.837-137.984-41.301-44.672-67.883-96.128-79.531-153.899-3.285-16.299-3.883-24.533-3.797-52.608 0.043-29.355 0.597-35.797 4.608-54.784 21.803-102.869 94.592-189.312 203.477-241.493 39.040-18.688 88.064-34.091 129.707-40.704 22.101-3.499 30.677-5.717 40.107-10.411 19.755-9.856 21.675-20.181 13.525-71.979-4.48-28.587-4.352-35.413 0.896-40.661 5.291-5.248 12.629-5.419 27.008-0.64 37.845 12.629 164.053 94.592 242.645 157.653 63.573 50.987 109.269 97.792 139.776 143.147 21.726 32.239 37.935 70.142 46.248 110.917l0.344 2.022c4.779 25.728 4.395 73.6-0.811 99.541-18.261 91.307-76.757 170.155-166.741 224.725-85.803 52.011-190.976 75.691-298.624 67.157zM271.403 647.68c9.344-4.864 9.259-4.139 10.197-87.893l0.853-77.653 72.789-1.707 5.845-6.357c4.736-5.205 5.845-7.765 5.845-13.653-0.059-4.758-1.334-9.205-3.526-13.062l0.070 0.134c-6.016-9.899-10.027-10.581-60.928-10.581-50.261 0-53.419 0.555-60.928 10.795-3.456 4.693-3.541 6.869-4.011 93.141-0.384 68.352 0 89.813 1.707 94.933 4.096 12.416 19.797 18.261 32.085 11.904zM421.589 647.637c10.368-5.333 10.197-3.627 10.197-105.003v-92.416l-5.675-5.675c-10.325-10.325-25.472-8.96-34.304 3.157-3.456 4.736-3.541 6.571-3.541 96.427 0 87.083 0.171 91.861 3.243 96.384 4.372 5.946 11.341 9.762 19.201 9.762 3.973 0 7.718-0.975 11.010-2.699l-0.131 0.062zM500.864 644.693c3.2-3.029 21.461-26.667 40.533-52.48l42.325-57.173 7.637-10.24 1.707 113.749 6.357 5.845c5.461 4.992 7.637 5.845 14.72 5.845 5.845 0 9.685-1.067 12.843-3.584 9.813-7.68 9.6-5.504 9.6-103.211 0-87.168-0.085-90.112-3.456-95.488-6.699-10.837-22.187-13.952-32-6.4-2.176 1.664-23.168 29.141-46.677 61.056-23.467 31.915-43.435 58.283-44.288 58.581-0.939 0.341-1.579-21.589-1.579-54.912v-55.467l-5.632-5.973c-10.325-10.965-25.045-9.728-34.347 2.859-3.456 4.693-3.541 6.699-4.011 94.251-0.512 98.944-0.597 98.261 10.197 104.832 3.723 2.122 8.17 3.397 12.911 3.456h0.017c5.845 0 8.405-1.067 13.141-5.547zM785.707 646.656c13.397-10.496 12.075-28.331-2.773-37.376-5.035-3.072-8.619-3.413-38.4-3.413h-32.853v-39.253h33.365c29.696 0 34.048-0.384 39.851-3.328 7.075-3.572 11.842-10.782 11.842-19.106 0-4.426-1.348-8.537-3.655-11.945l0.048 0.075c-6.4-9.472-8.875-10.027-46.891-10.027l-34.56-0.043v-40.96h34.219c38.016 0 41.728-0.853 47.787-10.752 1.986-3.258 3.162-7.199 3.162-11.415 0-4.302-1.225-8.318-3.344-11.719l0.054 0.094c-6.016-9.899-9.984-10.581-61.397-10.581s-55.381 0.683-61.397 10.581c-3.328 5.461-3.456 8.363-3.456 96.683 0 80.939 0.299 91.563 2.773 95.744 5.931 10.027 7.083 10.24 61.44 10.283 47.829 0.043 49.835-0.085 54.187-3.541z" />
<glyph unicode="&#xe91d;" glyph-name="linkedin" d="M205.653 893.483c-14.080-3.072-27.093-9.216-39.467-18.56-36.864-27.904-48.469-78.677-27.563-120.917 7.851-15.787 27.947-35.413 44.245-43.179 22.101-10.496 41.813-13.141 63.744-8.533 38.472 8.567 68.233 38.328 76.675 76.131l0.125 0.669c1.504 5.628 2.368 12.089 2.368 18.752s-0.864 13.124-2.486 19.278l0.118-0.526c-4.003 19.565-13.53 36.459-26.861 49.475l-0.019 0.018c-24.789 24.789-57.6 34.688-90.88 27.392zM150.187 384.853v-250.027h153.6v500.053h-153.6v-250.027zM684.373 633.685c-53.931-5.76-99.84-30.763-123.136-66.987l-4.864-7.595v68.949h-143.36v-500.053h153.6v125.269c0 73.472 0.725 132.565 1.749 142.933 3.712 37.12 13.867 63.232 31.531 80.811 17.664 17.664 38.571 25.429 68.267 25.472 15.189 0 18.261-0.555 27.819-4.907 25.856-11.776 40.021-40.747 44.629-91.392 1.067-11.605 1.792-72.405 1.792-148.907v-129.28h153.6v154.027c-0.043 153.344-0.768 178.517-6.229 211.2-12.715 76.501-49.195 119.168-115.243 134.784-23.637 5.589-66.133 8.277-90.155 5.675z" />
<glyph unicode="&#xe91e;" glyph-name="location" d="M494.080 969.984c-122.029-6.862-227.665-71.35-290.852-166.474l-0.86-1.377c-30.1-45.162-51.326-98.814-59.86-156.598l-0.257-2.122c-3.627-23.851-4.096-77.227-0.896-99.84 15.829-111.445 73.259-217.771 180.053-333.397 45.013-48.768 120.235-115.499 143.147-127.061 13.891-6.558 30.098-10.696 47.187-11.426l0.259-0.009c13.611 0 34.944 5.163 47.445 11.435 17.024 8.576 73.515 56.747 114.603 97.664 122.453 121.941 191.445 242.005 208.597 362.795 3.2 22.613 2.731 75.989-0.896 99.84-17.024 112.299-77.013 206.805-170.069 267.904-43.563 28.629-103.253 50.304-154.453 56.149-15.255 1.702-32.941 2.673-50.854 2.673-4.322 0-8.632-0.057-12.927-0.169l0.635 0.013zM561.493 902.229c47.943-8.462 90.52-26.679 127.286-52.589l-0.993 0.663c20.096-14.123 57.259-50.901 71.168-70.357 54.571-76.459 73.472-165.035 54.869-256.853-22.827-112.512-118.357-247.083-257.749-363.093-24.192-20.139-30.421-23.467-44.075-23.467s-19.883 3.328-44.075 23.467c-144.299 120.107-237.611 254.251-260.053 373.888-4.523 24.107-5.376 76.8-1.621 101.845 8.172 54.863 29 103.733 59.425 145.112l-0.63-0.898c13.909 19.456 51.072 56.235 71.168 70.357 38.059 26.837 87.552 46.677 130.56 52.395l18.773 2.56c10.24 1.451 61.824-0.597 75.947-3.029zM494.72 755.968c-19.627-2.133-32.981-6.059-51.84-15.232-45.227-21.931-74.24-58.027-86.613-107.563-2.401-10.773-3.777-23.146-3.777-35.84s1.376-25.067 3.986-36.978l-0.209 1.138c7.808-31.275 21.035-54.912 43.008-76.885 31.147-31.147 68.523-46.592 112.725-46.592s81.579 15.445 112.725 46.592c31.147 31.147 46.592 68.523 46.592 112.725 0 67.797-39.509 124.757-104.149 149.973-18.816 7.381-49.963 11.093-72.448 8.661zM535.723 690.261c16.128-3.797 30.165-11.989 43.691-25.515 19.371-19.371 28.117-40.32 28.117-67.413s-8.747-48.043-28.117-67.413c-19.456-19.456-40.277-28.16-67.413-28.16s-47.957 8.704-67.413 28.16c-19.371 19.371-28.117 40.32-28.117 67.413s8.747 48.043 28.117 67.413c13.227 13.227 27.563 21.717 42.88 25.472 7.286 1.54 15.657 2.422 24.234 2.422 8.501 0 16.8-0.866 24.813-2.515l-0.791 0.136z" />
<glyph unicode="&#xe91f;" glyph-name="log-in" d="M631.424 926.848c-15.701-3.072-22.869-12.715-22.955-30.848-0.043-14.165 4.309-23.125 13.739-28.032 6.485-3.413 9.856-3.584 104.832-4.395l98.133-0.853 8.021-3.968c10.197-5.035 20.523-15.36 25.557-25.557l3.968-8.021v-626.347l-3.968-8.021c-5.929-11.117-14.794-19.995-25.568-25.779l-0.331-0.162c-7.424-3.456-10.709-3.627-105.813-4.437l-98.133-0.853-7.211-4.139c-9.429-5.376-13.141-13.141-13.227-27.435-0.043-14.165 4.309-23.125 13.739-28.032 6.571-3.456 8.96-3.541 108.245-3.541h101.547l13.653 4.651c18.737 6.205 34.719 16.395 47.59 29.627l0.026 0.027c14.208 14.208 23.211 28.629 29.653 47.616l4.651 13.653v640l-4.651 13.653c-6.227 18.736-16.43 34.716-29.669 47.59l-0.027 0.026c-20.139 20.096-41.003 30.251-68.523 33.408-16.512 1.92-183.723 2.048-193.28 0.171zM415.104 755.84c-8.917-4.395-18.56-15.36-21.163-24.021-4.352-14.549-5.419-13.227 85.291-104.149l82.944-83.157-445.269-0.939-7.211-4.139c-9.429-5.376-13.141-13.141-13.227-27.435-0.043-14.165 4.309-23.125 13.739-28.032 6.656-3.499 8.107-3.541 229.333-4.011l222.677-0.427-82.987-83.2c-91.264-91.435-89.685-89.515-85.12-104.704 2.773-9.301 16.213-22.741 25.515-25.515 15.403-4.608 10.923-8.405 130.048 109.952 59.691 59.264 110.933 109.909 113.877 112.512 3.773 3.817 6.621 8.555 8.176 13.847l0.059 0.233c2.816 8.832 2.816 9.856 0.043 18.645-1.598 5.558-4.515 10.31-8.397 14.072l-0.008 0.008c-39.589 38.746-76.413 75.178-113.042 111.805l0.018-0.018c-74.283 73.941-109.483 107.861-113.877 109.653-8.448 3.541-12.715 3.328-21.419-0.981z" />
<glyph unicode="&#xe920;" glyph-name="logout" d="M196.992 926.592c-24.96-2.987-46.848-13.995-66.219-33.323-13.266-12.9-23.469-28.88-29.457-46.79l-0.239-0.826-4.651-13.653v-640l4.651-13.653c6.443-18.987 15.445-33.408 29.653-47.616s28.629-23.211 47.616-29.653l13.653-4.651h101.547c99.285 0 101.675 0.085 108.245 3.541 9.429 4.907 13.781 13.867 13.739 28.032-0.085 14.293-3.797 22.059-13.227 27.435l-7.211 4.139-98.133 0.853c-95.104 0.811-98.389 0.981-105.813 4.437-11.105 5.946-19.969 14.825-25.736 25.609l-0.162 0.333-3.968 8.021v626.347l3.968 8.021c5.851 10.958 14.6 19.706 25.23 25.397l0.327 0.16 8.021 3.968 98.133 0.853c94.976 0.811 98.347 0.981 104.832 4.395 9.429 4.907 13.781 13.867 13.739 28.032-0.085 14.293-3.797 22.059-13.227 27.435l-7.211 4.139-93.013 0.256c-51.157 0.128-98.475-0.427-105.088-1.237zM671.104 755.84c-8.917-4.395-18.56-15.36-21.163-24.021-4.352-14.549-5.419-13.227 85.291-104.149l82.944-83.157-445.269-0.939-7.211-4.139c-9.429-5.376-13.141-13.141-13.227-27.435-0.043-14.165 4.309-23.125 13.739-28.032 6.656-3.499 8.107-3.541 229.333-4.011l222.677-0.427-82.987-83.2c-91.264-91.435-89.685-89.515-85.12-104.704 2.773-9.301 16.213-22.741 25.515-25.515 15.403-4.608 10.923-8.405 130.048 109.952 59.691 59.264 110.933 109.909 113.877 112.512 3.773 3.817 6.621 8.555 8.176 13.847l0.059 0.233c2.816 8.832 2.816 9.856 0.043 18.645-1.598 5.558-4.515 10.31-8.397 14.072l-0.008 0.008c-39.589 38.746-76.413 75.178-113.042 111.805l0.018-0.018c-74.283 73.941-109.483 107.861-113.877 109.653-8.448 3.541-12.715 3.328-21.419-0.981z" />
<glyph unicode="&#xe921;" glyph-name="menu" d="M118.912 798.805c-14.549-2.859-22.144-13.397-22.144-30.805 0-19.712 8.832-29.568 28.288-31.531 5.845-0.597 184.192-0.853 396.331-0.555 382.165 0.512 385.749 0.555 391.509 3.925 11.648 6.869 16.896 20.395 13.952 36.053-1.271 8.769-6.514 16.095-13.813 20.195l-0.139 0.072c-5.76 3.371-9.088 3.413-396.629 3.669-214.955 0.128-393.771-0.341-397.355-1.024zM118.912 542.805c-14.592-2.901-22.144-13.397-22.144-30.805 0-19.712 8.832-29.568 28.288-31.531 5.845-0.597 97.792-0.853 204.331-0.555 190.165 0.512 193.792 0.555 199.509 3.925 7.438 4.171 12.681 11.498 13.934 20.118l0.018 0.149c2.944 15.659-2.304 29.184-13.952 36.053-5.717 3.371-9.088 3.413-204.629 3.669-109.355 0.128-201.771-0.341-205.355-1.024zM118.912 286.805c-14.549-2.859-22.144-13.397-22.144-30.805 0-19.712 8.832-29.568 28.288-31.531 5.845-0.597 184.192-0.853 396.331-0.555 382.165 0.512 385.749 0.555 391.509 3.925 11.648 6.869 16.896 20.395 13.952 36.053-1.271 8.769-6.514 16.095-13.813 20.195l-0.139 0.072c-5.76 3.371-9.088 3.413-396.629 3.669-214.955 0.128-393.771-0.341-397.355-1.024z" />
<glyph unicode="&#xe922;" glyph-name="microphone-2" d="M494.72 1011.968c-19.627-2.133-32.981-6.059-51.84-15.232-36.949-17.92-63.147-45.397-78.165-81.963-12.928-31.488-12.288-19.328-12.288-232.107 0-179.2 0.171-191.104 3.157-203.947 7.088-31.311 22.461-58.311 43.685-79.439l0.006-0.006c28.268-28.846 67.631-46.728 111.17-46.728 0.547 0 1.093 0.003 1.639 0.008l-0.083-0.001c0.462-0.005 1.009-0.008 1.556-0.008 43.539 0 82.902 17.882 111.144 46.702l0.025 0.026c21.23 21.134 36.603 48.134 43.484 78.364l0.207 1.081c2.987 12.843 3.157 24.747 3.157 203.947s-0.171 191.104-3.157 203.947c-12.672 54.613-48.725 96.171-101.248 116.693-18.816 7.381-49.963 11.093-72.448 8.661zM535.723 946.261c6.016-1.408 15.616-5.035 21.333-8.064 13.397-7.083 32.725-26.411 39.808-39.808 11.008-20.821 10.667-13.525 10.667-215.723s0.341-194.901-10.667-215.723c-7.040-13.355-26.411-32.725-39.637-39.723-13.146-6.876-28.715-10.91-45.227-10.91s-32.080 4.034-45.776 11.17l0.549-0.26c-13.227 6.997-32.597 26.368-39.637 39.723-11.008 20.821-10.667 13.525-10.667 215.723s-0.341 194.901 10.667 215.723c7.083 13.44 26.411 32.725 39.851 39.851 19.456 10.283 46.037 13.397 68.736 8.021zM204.757 628.224c-9.045-1.835-16.64-7.040-19.968-13.739-2.645-5.291-3.115-12.459-3.584-57.259-0.811-74.325 2.645-104.832 16.853-148.053 15.99-49.18 42.022-91.289 75.861-125.697l-0.043 0.044c29.824-30.848 55.339-49.621 92.203-67.755 32.768-16.128 65.963-26.155 107.093-32.341l6.4-0.981v-107.136l-149.333-1.067-7.211-4.139c-9.429-5.376-13.141-13.141-13.227-27.435-0.043-14.165 4.309-23.125 13.739-28.032 6.656-3.499 8.107-3.541 188.459-3.541s181.803 0.043 188.459 3.541c9.429 4.907 13.781 13.867 13.739 28.032-0.085 14.293-3.797 22.059-13.227 27.435l-7.211 4.139-149.333 1.067v107.136l6.4 0.981c41.131 6.187 74.325 16.213 107.093 32.341 36.864 18.133 62.379 36.907 92.203 67.755 33.702 34.307 59.694 76.304 75.094 123.111l0.639 2.244c14.293 43.648 17.749 74.155 16.939 148.352-0.64 58.24-1.067 60.288-13.653 67.371-9.899 5.547-27.051 5.547-36.949 0-12.885-7.253-12.971-7.595-14.080-81.024-0.853-58.069-1.365-66.688-4.736-82.389-12.416-57.941-36.949-102.571-78.123-142.037-47.394-45.422-111.831-73.387-182.8-73.387-0.159 0-0.319 0-0.478 0h0.025c-0.002 0-0.004 0-0.005 0-123.526 0-227.397 84.151-257.415 198.253l-0.415 1.854c-6.528 25.515-6.955 30.592-8.107 96.853-1.024 58.197-1.493 66.389-4.181 71.808-5.248 10.496-22.016 16.683-37.12 13.696z" />
<glyph unicode="&#xe923;" glyph-name="nationality" d="M317.44 970.027c-66.304-3.413-120.747-17.579-154.624-40.235-14.592-9.771-20.437-16.171-22.827-25.131-1.195-4.48-1.621-138.752-1.323-418.475l0.427-411.947 3.541-6.699c4.907-9.387 13.867-13.781 28.032-13.781s23.125 4.395 28.032 13.781c3.499 6.613 3.541 8.917 4.011 153.771l0.469 147.029 13.184 5.504c35.84 14.933 80.469 21.675 131.797 19.84 46.507-1.621 72.235-8.277 150.187-38.784 52.736-20.651 90.325-32.981 116.267-38.187 86.443-17.365 194.133-2.389 248.533 34.56 12.501 8.533 18.56 15.488 20.864 24.107 1.237 4.437 1.664 91.563 1.365 269.141-0.427 248.149-0.64 262.912-3.499 268.672-4.437 8.832-14.379 13.952-27.435 14.037-10.88 0.085-15.616-1.579-23.979-8.533-11.691-9.771-39.168-20.352-67.413-26.027-21.188-4.419-45.536-6.948-70.475-6.948-1.804 0-3.604 0.013-5.402 0.040l0.272-0.003c-51.755 0.043-81.28 7.424-172.032 43.221-56.533 22.272-91.349 32.597-126.976 37.675-17.474 2.255-37.686 3.541-58.199 3.541-4.5 0-8.986-0.062-13.457-0.185l0.659 0.014zM397.397 900.352c25.899-5.461 49.024-13.099 100.949-33.451 76.928-30.080 113.493-40.277 159.573-44.416 44.629-4.011 105.429 2.048 147.029 14.677 7.637 2.304 14.336 4.224 14.933 4.224 0.555 0 1.024-99.371 1.024-220.8v-220.757l-9.813-4.352c-32.469-14.421-74.027-21.717-123.648-21.717-51.755 0.043-81.28 7.424-172.032 43.221-81.024 31.915-119.808 40.789-178.347 40.789-46.421 0-81.579-4.437-117.589-14.891-8.107-2.347-15.104-4.267-15.573-4.267-0.427 0-0.811 99.371-0.811 220.843v220.885l13.227 5.504c35.925 14.976 71.637 20.523 125.867 19.541 28.629-0.512 37.504-1.323 55.211-5.035z" />
<glyph unicode="&#xe924;" glyph-name="pause" d="M247.424 884.224c-9.088-1.835-16.64-7.040-19.968-13.739-2.859-5.717-3.029-25.045-3.029-358.485v-352.427l3.541-6.699c2.38-4.364 5.876-7.86 10.109-10.174l0.131-0.066c6.528-3.456 9.003-3.541 103.125-3.541s96.597 0.085 103.125 3.541c4.364 2.38 7.86 5.876 10.174 10.109l0.066 0.131 3.541 6.699v352.427c0 334.933-0.171 352.725-3.029 358.528-2.5 4.276-5.964 7.74-10.108 10.169l-0.132 0.071-7.211 4.139-92.16 0.256c-50.688 0.171-94.848-0.256-98.176-0.939zM588.757 884.224c-9.088-1.835-16.64-7.040-19.968-13.739-2.859-5.717-3.029-25.045-3.029-358.485v-352.427l3.541-6.699c2.38-4.364 5.876-7.86 10.109-10.174l0.131-0.066c6.528-3.456 9.003-3.541 103.125-3.541s96.597 0.085 103.125 3.541c4.364 2.38 7.86 5.876 10.174 10.109l0.066 0.131 3.541 6.699v352.427c0 334.933-0.171 352.725-3.029 358.528-2.5 4.276-5.964 7.74-10.108 10.169l-0.132 0.071-7.211 4.139-92.16 0.256c-50.688 0.171-94.848-0.256-98.176-0.939zM394.24 512v-308.907h-105.813v617.813h105.813v-308.907zM735.573 512v-308.907h-105.813v617.813h105.813v-308.907z" />
<glyph unicode="&#xe925;" glyph-name="people" d="M364.544 926.592c-82.944-7.339-154.325-67.797-176.085-149.163-4.341-15.632-6.836-33.582-6.836-52.115 0-41.281 12.379-79.671 33.627-111.66l-0.465 0.745c12.203-18.816 39.467-46.080 58.283-58.283 31.239-20.821 69.638-33.224 110.933-33.224s79.694 12.403 111.674 33.687l-0.741-0.464c18.816 12.203 46.080 39.467 58.283 58.283 51.669 79.829 42.24 182.4-23.083 250.496-32.813 34.913-78.022 57.844-128.564 61.74l-0.673 0.042c-5.344 0.587-12.369 1.121-19.446 1.46l-0.863 0.033c-0.469-0.128-7.68-0.811-16.043-1.579zM670.123 921.557c-10.453-3.115-18.005-15.104-19.413-30.72-1.579-17.109 5.461-25.856 25.429-31.744 26.24-7.765 45.397-19.243 63.275-37.931 28.672-30.037 40.32-61.483 38.4-103.765-1.067-23.381-4.821-37.419-15.189-56.789-17.306-32.724-46.467-57.231-81.626-68.051l-0.976-0.259c-21.248-6.4-29.781-14.507-29.781-28.373 0-17.024 9.472-32.896 21.504-35.925 6.571-1.621 18.688 0.299 33.963 5.461 123.179 41.429 175.403 188.032 106.411 298.837-11.435 18.347-38.229 46.72-55.168 58.411-16.725 11.605-44.288 24.661-61.397 29.099-14.549 3.755-17.92 4.011-25.429 1.749zM422.997 858.539c21.675-6.229 38.101-15.872 56.363-33.28 19.029-18.133 31.275-37.973 38.144-61.867 5.504-19.2 5.504-56.917 0-76.117-7.125-24.832-19.541-44.459-40.149-63.659-27.008-25.088-56.277-36.523-93.355-36.523s-66.347 11.435-93.355 36.523c-20.608 19.2-33.024 38.827-40.149 63.659-5.504 19.2-5.504 56.917 0 76.117 6.485 22.613 16 38.827 33.579 57.301 19.444 21.187 45.528 36.002 74.938 41.144l0.796 0.115c13.696 2.475 49.152 0.555 63.189-3.413zM193.877 414.592c-78.080-6.912-146.475-61.099-172.203-136.405-9.728-28.459-10.581-36.736-10.581-101.547 0-57.045 0.171-60.032 3.541-66.432 4.907-9.387 13.867-13.781 28.032-13.781s23.125 4.395 28.032 13.781c3.328 6.272 3.584 10.411 4.523 68.139 0.939 57.941 1.195 62.123 4.907 73.387 15.915 48.811 48.683 80.768 98.219 95.872 9.685 2.944 21.163 3.115 205.653 3.115h195.413l12.757-4.011c6.997-2.176 18.048-6.613 24.533-9.813 33.408-16.512 58.752-46.805 71.211-85.163 3.669-11.221 3.925-15.573 4.864-73.387 0.939-57.728 1.195-61.867 4.523-68.139 4.907-9.387 13.867-13.781 28.032-13.781s23.125 4.395 28.032 13.781c3.371 6.4 3.541 9.387 3.541 66.432 0 64.811-0.853 73.088-10.581 101.547-17.038 48.658-50.52 87.937-93.643 112.024l-1.035 0.531c-23.092 13.166-50.375 21.779-79.461 23.899l-0.625 0.037c-22.912 2.005-354.688 1.963-377.685-0.085zM840.789 409.557c-9.685-2.901-17.365-14.037-19.285-27.989-2.56-18.645 3.797-27.221 25.429-34.347 50.389-16.555 81.749-47.957 97.792-98.048 2.56-7.979 3.2-18.688 4.011-70.827 0.981-57.685 1.237-61.867 4.565-68.139 4.907-9.387 13.867-13.781 28.032-13.781s23.125 4.395 28.032 13.781c3.371 6.4 3.541 9.387 3.541 67.285 0 52.736-0.427 62.464-3.157 75.093-4.224 19.2-12.971 43.392-20.651 57.173-14.336 25.6-41.131 55.253-64 70.784-15.061 10.24-42.837 23.083-58.88 27.264-14.549 3.755-17.92 4.011-25.429 1.749z" />
<glyph unicode="&#xe926;" glyph-name="play" d="M215.381 916.267c-4.792-2.307-8.613-5.991-11.030-10.536l-0.064-0.131-3.755-7.040-0.469-387.413c-0.299-267.819 0.128-390.101 1.365-396.16 4.608-22.272 24.533-33.749 42.581-24.533 7.851 3.968 596.096 381.696 605.397 388.693 6.315 4.779 14.165 19.371 14.165 26.411-0.36 8.191-4.125 15.437-9.904 20.406l-0.038 0.032c-7.467 6.272-604.544 389.931-610.219 392.107-7.68 2.944-20.053 2.091-28.032-1.835zM521.941 664.192c201.387-129.451 247.637-159.872 245.76-161.579-1.707-1.579-490.368-315.989-501.035-322.347-1.707-1.024-2.133 64.256-2.133 324.139v325.419l4.693-3.072c2.56-1.707 116.309-74.837 252.715-162.56z" />
<glyph unicode="&#xe927;" glyph-name="play-circle" d="M490.667 969.984c-151.227-7.512-282.424-86.95-360.887-204.571l-1.054-1.679c-36.779-55.893-60.245-117.803-70.955-187.221-5.376-34.944-5.376-94.080 0-129.024 15.659-101.589 59.392-188.757 130.176-259.541 50.054-50.49 111.907-89.2 181.084-111.658l3.193-0.896c21.406-7.422 46.807-13.577 72.978-17.351l2.286-0.271c32.384-4.949 92.459-5.376 123.392-0.853 73.899 10.837 137.173 34.688 195.413 73.643 98.304 65.749 169.173 169.301 193.664 282.923 7.979 37.205 10.112 57.685 10.112 98.517 0 65.365-10.795 119.040-35.883 178.987-53.077 126.677-162.816 223.403-297.472 262.144-38.245 10.926-82.17 17.208-127.563 17.208-6.501 0-12.972-0.129-19.41-0.384l0.925 0.029zM551.509 904.491c138.039-14.424 253.703-98.141 312.694-215.292l1.034-2.265c19.328-39.381 29.952-72.619 37.035-116.053 4.309-26.496 4.309-91.264 0-117.76-14.251-87.211-52.096-160.981-114.091-222.251-28.675-28.97-62.129-53.139-99.096-71.24l-2.152-0.952c-33.28-17.134-71.906-30.048-112.639-36.688l-2.262-0.304c-25.899-4.352-94.165-4.352-120.064 0-42.996 6.944-81.622 19.858-117.116 38.021l2.215-1.029c-74.822 37.563-134.565 95.81-172.961 167.239l-1.034 2.105c-28.643 53.338-45.472 116.703-45.472 183.999 0 94.405 33.118 181.075 88.369 249.026l-0.572-0.726c18.559 21.696 38.177 41.233 59.244 59.116l0.745 0.617c58.069 46.293 132.309 76.928 203.947 84.267 20.821 2.133 61.611 2.219 82.176 0.171zM418.091 713.515c-9.045-1.749-16.64-6.955-19.968-13.696-2.859-5.675-3.029-17.451-3.029-186.965 0-202.453-1.109-185.216 12.501-197.504 9.472-8.533 17.92-9.728 29.696-4.181 4.949 2.347 67.371 43.307 138.709 91.008 93.355 62.464 130.773 88.405 133.547 92.587 8.491 12.843 8.789 25.088 0.811 34.56-3.968 4.736-256.896 174.763-269.269 181.077-4.783 2.335-10.408 3.701-16.351 3.701-2.349 0-4.648-0.213-6.879-0.621l0.233 0.035zM542.891 566.485c45.141-30.080 81.835-54.955 81.493-55.211-0.341-0.299-37.632-25.216-82.944-55.381l-82.347-54.827v110.080c0 60.544 0.384 110.080 0.853 110.080s37.803-24.619 82.944-54.741z" />
<glyph unicode="&#xe928;" glyph-name="search-normal" d="M441.173 926.72c-92.595-7.096-174.672-47.171-235.548-108.358l-0.015-0.015c-57.344-57.301-93.525-129.152-106.027-210.773-4.096-26.88-4.096-78.933 0-105.813 12.501-81.621 48.597-153.387 106.027-210.816 64.085-64.085 145.707-101.376 237.696-108.629 86.059-6.784 177.963 20.096 248.533 72.704 8.192 6.144 15.744 11.648 16.725 12.245s40.277-37.333 87.339-84.267c94.123-93.909 91.904-92.117 107.136-87.552 9.301 2.773 22.741 16.213 25.515 25.515 4.565 15.232 6.357 13.013-87.552 107.136-46.933 47.061-84.864 86.357-84.267 87.339s6.101 8.533 12.245 16.725c52.608 70.571 79.488 162.475 72.704 248.533-10.624 134.784-87.893 249.557-207.659 308.48-48.135 24.334-104.93 38.586-165.054 38.586-9.783 0-19.478-0.377-29.071-1.118l1.272 0.079zM521.899 859.477c65.333-11.802 122.035-42.671 165.66-86.556l0.015-0.015c46.421-46.421 75.776-103.595 87.552-170.453 1.365-7.808 2.219-26.453 2.219-47.787s-0.853-39.979-2.219-47.787c-11.947-67.84-40.96-123.861-88.832-171.349-45.099-44.8-95.744-71.808-158.933-84.864-17.237-3.584-24.277-4.053-58.027-4.053s-40.789 0.469-58.027 4.053c-62.336 12.843-116.053 41.387-159.189 84.523-47.872 47.872-76.373 103.168-88.533 171.691-3.029 17.067-3.029 78.507 0 95.573 4.243 23.582 9.921 44.232 17.225 64.096l-0.841-2.613c32.721 82.945 97.151 147.375 177.963 179.352l2.133 0.744c22.272 8.576 43.904 13.653 79.403 18.56 11.349 1.579 68.907-0.597 82.432-3.115z" />
<glyph unicode="&#xe929;" glyph-name="share" d="M750.72 969.301c-19.627-2.133-32.981-6.059-51.84-15.232-45.227-21.931-74.24-58.027-86.613-107.563-5.077-20.437-5.035-51.413 0.128-72.363 2.091-8.363 3.584-15.317 3.328-15.488l-235.435-137.088c-4.523-2.603-4.736-2.475-14.635 6.699-18.347 16.981-45.781 32.299-68.053 38.059-12.522 3.105-26.898 4.886-41.69 4.886-14.727 0-29.041-1.766-42.743-5.097l1.233 0.253c-14.421-3.669-42.368-17.536-55.723-27.691-28.971-22.016-49.024-53.163-58.411-90.837-2.688-10.88-3.584-19.84-3.584-35.84 0-44.203 15.445-81.579 46.592-112.725s68.523-46.592 112.725-46.592c42.069 0 78.592 14.336 109.525 42.965 8.192 7.595 10.795 9.131 13.056 7.765 1.579-0.981 55.467-32.341 119.765-69.76l117.376-68.309c-0.9-6.026-2.061-11.258-3.544-16.353l0.216 0.865c-5.163-20.949-5.205-51.925-0.128-72.363 7.808-31.275 21.035-54.912 43.008-76.885 31.147-31.147 68.523-46.592 112.725-46.592s81.579 15.445 112.725 46.592c31.147 31.147 46.592 68.523 46.592 112.725 0 62.933-33.237 115.755-90.197 143.403-7.649 3.896-16.762 7.615-26.2 10.604l-1.32 0.361c-12.469 3.078-26.783 4.843-41.51 4.843-14.792 0-29.168-1.781-42.925-5.141l1.235 0.255c-22.272-5.76-49.707-21.077-68.053-38.101-8.149-7.509-10.667-9.003-12.928-7.595-1.579 0.981-55.467 32.341-119.765 69.76l-117.376 68.267c0.9 6.026 2.061 11.258 3.544 16.353l-0.216-0.865c5.077 20.523 5.077 53.333 0 73.216-2.688 10.496-3.029 14.080-1.451 15.573 1.109 1.067 53.845 32.085 117.205 68.992l118.059 68.779c2.261 1.408 4.821-0.128 13.056-7.723 27.919-26.607 65.801-42.978 107.506-42.978 0.71 0 1.419 0.005 2.127 0.014l-0.107-0.001c44.203 0 81.579 15.445 112.725 46.592s46.592 68.523 46.592 112.725c0 67.797-39.509 124.757-104.149 149.973-18.816 7.381-49.963 11.093-72.448 8.661zM791.723 903.595c16.128-3.797 30.165-11.989 43.691-25.515 19.371-19.371 28.117-40.32 28.117-67.413s-8.747-48.043-28.117-67.413c-19.456-19.456-40.277-28.16-67.413-28.16-26.667 0-47.787 8.619-66.688 27.307-19.499 19.243-28.843 41.301-28.843 68.267 0 27.093 8.747 48.043 28.117 67.413 13.227 13.227 27.563 21.717 42.88 25.472 7.286 1.54 15.657 2.422 24.234 2.422 8.501 0 16.8-0.866 24.813-2.515l-0.791 0.136zM279.723 604.928c31.957-7.509 61.696-37.163 69.205-69.077 1.851-7.028 2.914-15.097 2.914-23.414 0-26.959-11.167-51.309-29.127-68.678l-0.027-0.026c-18.901-18.688-40.021-27.307-66.688-27.307-27.136 0-47.957 8.704-67.413 28.16-19.371 19.371-28.117 40.32-28.117 67.413s8.747 48.043 28.117 67.413c13.227 13.227 27.563 21.717 42.88 25.472 7.286 1.54 15.657 2.422 24.234 2.422 8.501 0 16.8-0.866 24.813-2.515l-0.791 0.136zM791.723 306.261c16.128-3.797 30.165-11.989 43.691-25.515 19.371-19.371 28.117-40.32 28.117-67.413s-8.747-48.043-28.117-67.413c-19.456-19.456-40.277-28.16-67.413-28.16s-47.957 8.704-67.413 28.16c-13.525 13.525-21.717 27.563-25.515 43.691-1.581 7.155-2.486 15.373-2.486 23.803 0 8.357 0.89 16.506 2.58 24.357l-0.137-0.757c7.424 31.488 37.248 61.611 68.437 69.205 7.286 1.54 15.657 2.422 24.234 2.422 8.501 0 16.8-0.866 24.813-2.515l-0.791 0.136z" />
<glyph unicode="&#xe92a;" glyph-name="sms" d="M154.88 884.011c-42.027-4.992-81.792-37.333-95.061-77.397-7.851-23.723-7.808-22.101-6.912-304.853l0.853-267.093 4.651-13.653c6.443-18.901 15.36-33.195 29.739-47.531 14.336-14.379 28.629-23.296 47.531-29.739l13.653-4.651h725.333l13.653 4.651c18.901 6.443 33.195 15.36 47.531 29.739 14.379 14.336 23.296 28.629 29.739 47.531l4.651 13.653 0.853 267.093c0.896 282.752 0.939 281.131-6.912 304.853-11.392 34.432-43.477 64.256-80.981 75.264-9.6 2.816-31.659 2.987-363.52 3.243-194.304 0.128-358.443-0.384-364.8-1.109zM870.997 818.176c9.941-3.413 24.533-16.469 29.653-26.496 3.584-7.040 3.627-7.637 0.853-10.197-1.621-1.536-89.941-63.616-196.309-137.984l-193.323-135.211-195.328 136.832c-142.832 97.641-206.705 143.041-270.352 188.736l74.213-50.666c-1.749 2.859 6.741 15.957 15.403 23.893 16.256 14.848-19.541 13.525 375.467 13.696 318.677 0.128 352.427-0.128 359.723-2.603zM307.755 573.184c103.424-72.405 190.507-132.693 193.536-133.973s7.851-2.304 10.709-2.304 7.68 1.024 10.709 2.304c3.029 1.28 90.112 61.568 193.536 133.973-16.114-8.666 45.453 34.652 107.222 77.699l81.792 53.971c0.555 0 0.811-104.277 0.555-231.68l-0.427-231.68-4.139-8.064c-5.973-11.733-17.877-22.869-28.672-26.923-9.045-3.371-13.056-3.413-360.576-3.413s-351.531 0.043-360.576 3.413c-10.837 4.053-23.381 15.829-28.971 27.179l-3.84 7.808-0.427 231.68c-0.256 127.403 0 231.68 0.555 231.68 0.512 0 85.589-59.264 189.013-131.669z" />
<glyph unicode="&#xe92b;" glyph-name="sort" d="M118.912 756.139c-14.549-2.859-22.144-13.397-22.144-30.805 0-19.712 8.832-29.568 28.288-31.531 5.845-0.597 174.592-0.853 374.997-0.555 360.832 0.512 364.416 0.555 370.176 3.925 7.438 4.171 12.681 11.498 13.934 20.118l0.018 0.149c2.944 15.659-2.304 29.184-13.952 36.053-5.76 3.371-9.088 3.413-375.296 3.669-203.221 0.128-372.437-0.341-376.021-1.024zM246.912 542.805c-14.592-2.859-22.144-13.397-22.144-30.805 0-19.712 8.832-29.568 28.288-31.531 5.845-0.597 126.592-0.853 268.331-0.555 254.165 0.512 257.792 0.555 263.509 3.925 7.438 4.171 12.681 11.498 13.934 20.118l0.018 0.149c2.944 15.659-2.304 29.184-13.952 36.053-5.717 3.371-9.088 3.413-268.629 3.669-144.555 0.128-265.771-0.341-269.355-1.024zM417.579 329.472c-14.592-2.901-22.144-13.397-22.144-30.805 0-19.712 8.832-29.525 28.288-31.573 5.845-0.597 49.792-0.853 97.664-0.555 83.456 0.512 87.296 0.683 92.843 3.968 7.438 4.171 12.681 11.498 13.934 20.118l0.018 0.149c2.944 15.659-2.304 29.184-13.952 36.053-5.589 3.285-9.131 3.413-97.963 3.669-50.688 0.171-95.104-0.299-98.688-1.024z" />
<glyph unicode="&#xe92c;" glyph-name="star" d="M495.701 967.893c-3.26-2.127-6.006-4.737-8.216-7.763l-0.061-0.088c-1.707-2.603-31.317-62.037-65.835-132.053l-62.763-127.317-141.44-20.693c-90.155-13.184-143.36-21.675-146.731-23.424-8.27-4.916-14.572-12.404-17.87-21.345l-0.093-0.287c-0.75-2.050-1.184-4.417-1.184-6.886 0-2.6 0.481-5.087 1.36-7.378l-0.048 0.141c2.517-8.363-6.016 0.341 120.832-123.136 74.837-72.875 90.709-89.088 89.984-92.117-3.285-14.037-46.891-273.835-46.891-279.424 0-8.448 6.528-21.035 13.952-26.965 3.635-2.718 8.133-4.475 13.020-4.817l0.078-0.004c9.941-0.896 3.925-3.84 150.869 73.515 63.573 33.451 116.395 60.843 117.333 60.843s52.608-26.795 114.773-59.52c146.987-77.312 139.435-73.6 149.291-73.557 10.145 0.135 19.301 4.264 25.987 10.883l-0.003-0.003c8.021 8.704 7.467 14.037-17.707 160.597-28.205 184.851-36.584 231.86-45.105 278.819l21.127-140.323c-0.725 3.072 16.341 20.437 101.077 102.912 56.107 54.571 103.424 101.973 105.216 105.344 8.363 15.616 3.883 35.115-9.557 41.643-5.803 2.816-38.784 8.192-149.675 24.405l-142.251 20.779-63.061 127.957c-34.688 70.357-64.64 129.664-66.56 131.712-9.301 9.941-29.611 13.824-39.851 7.552zM564.864 759.040c33.877-68.437 54.315-107.861 57.472-110.805 2.645-2.56 6.869-5.376 9.344-6.315 2.475-0.896 55.467-9.088 117.76-18.091 62.293-9.045 114.645-16.981 116.309-17.621 2.389-0.939-7.296-11.179-47.787-50.517-105.984-102.955-121.088-118.443-123.349-126.507-1.92-6.741-0.427-16.981 17.877-123.563 10.965-63.915 19.669-116.864 19.371-117.675s-47.787 23.381-105.515 53.76c-100.907 53.077-105.344 55.211-114.347 55.211s-13.483-2.133-114.347-55.211c-57.728-30.379-105.216-54.528-105.557-53.675-0.299 0.811 8.405 53.76 19.413 117.632 18.56 107.989 19.797 116.693 17.835 123.733-1.92 6.827-9.216 14.549-70.613 74.539-22.7 22.271-50.722 49.645-78.794 76.968l-7.222 7c-14.549 14.123-17.024 17.28-14.507 18.261 1.707 0.683 54.144 8.619 116.565 17.664 62.421 9.088 115.797 17.451 118.656 18.645 4.012 2.083 7.408 4.785 10.203 8.021l0.037 0.043c2.773 3.243 28.117 52.864 56.277 110.251s51.456 104.363 51.755 104.405c0.299 0.043 24.235-47.744 53.163-106.155z" />
<glyph unicode="&#xe92d;" glyph-name="terms" d="M239.659 969.259c-24.875-2.901-46.848-13.952-66.219-33.323-13.266-12.9-23.469-28.88-29.457-46.79l-0.239-0.826-4.651-13.653v-725.333l4.651-13.653c6.443-18.987 15.445-33.408 29.653-47.616s28.629-23.211 47.616-29.653l13.653-4.651h554.667l13.653 4.651c18.737 6.205 34.719 16.395 47.59 29.627l0.026 0.027c14.208 14.208 23.211 28.629 29.653 47.616l4.651 13.653 0.512 247.467c0.341 186.795 0 249.259-1.536 254.805-1.403 4.736-3.949 8.772-7.324 11.933l-0.015 0.014c-12.843 11.136-291.627 290.091-294.229 294.357-3.020 3.764-6.798 6.791-11.116 8.877l-0.191 0.083-8.491 4.224-155.392-0.213c-85.461-0.128-160.853-0.853-167.467-1.621zM522.624 767.573c0.469-136.363 0.512-138.795 4.011-145.365 2.38-4.364 5.876-7.86 10.109-10.174l0.131-0.066c6.571-3.499 9.003-3.541 145.365-4.011l138.709-0.469-0.469-225.664-0.427-225.664-3.968-8.064c-5.632-11.435-17.749-22.784-28.757-26.88-9.088-3.413-12.672-3.456-275.328-3.456s-266.24 0.043-275.328 3.456c-11.008 4.096-23.125 15.445-28.757 26.88l-3.968 8.064-0.469 352.427c-0.384 264.363 0 354.261 1.493 359.68 3.968 14.507 18.475 29.867 33.365 35.328 5.461 2.005 30.464 2.432 145.195 2.517l138.624 0.128 0.469-138.667zM681.813 766.293l93.867-93.867h-188.587v93.867c0 51.627 0.213 93.867 0.427 93.867 0.256 0 42.667-42.24 94.293-93.867zM332.245 500.181c-14.635-2.987-22.144-13.44-22.144-30.848 0-19.669 8.832-29.525 28.288-31.616 5.845-0.597 30.592-0.853 54.997-0.555 40.704 0.555 44.843 0.896 50.176 4.011 7.438 4.171 12.681 11.498 13.934 20.118l0.018 0.149c2.944 15.659-2.304 29.184-13.952 36.053-5.419 3.2-9.173 3.413-55.296 3.712-27.221 0.171-52.437-0.299-56.021-1.024zM332.245 329.472c-14.592-2.901-22.144-13.397-22.144-30.805 0-19.712 8.832-29.525 28.288-31.573 5.845-0.597 59.392-0.853 118.997-0.555 104.789 0.555 108.544 0.683 114.176 3.968 7.438 4.171 12.681 11.498 13.934 20.118l0.018 0.149c2.944 15.659-2.304 29.184-13.952 36.053-5.632 3.328-9.131 3.413-119.296 3.669-62.421 0.171-116.437-0.299-120.021-1.024z" />
<glyph unicode="&#xe92e;" glyph-name="tick" d="M843.093 756.864c-3.797-1.664-88.533-85.205-232.533-229.12l-226.517-226.475-99.456 99.243c-109.227 109.056-105.6 105.984-120.96 101.376-9.301-2.773-22.741-16.213-25.515-25.515-4.651-15.531-9.173-10.24 116.736-136.192 100.053-100.011 115.584-114.901 121.899-116.736 16.256-4.736-1.92-21.547 262.869 243.029 173.312 173.227 242.091 243.029 244.693 248.32 4.437 9.131 3.456 17.109-3.243 26.667-10.197 14.507-25.771 20.821-37.973 15.403z" />
<glyph unicode="&#xe92f;" glyph-name="Tiktok" d="M530.389 621.653l-0.469-274.347-3.797-10.539c-10.027-27.648-30.763-51.499-55.253-63.488-18.645-9.131-32.896-12.587-51.883-12.587-18.944 0-33.195 3.456-52.053 12.629-26.197 12.757-48.64 39.68-57.387 68.864-4.224 14.080-4.224 43.947 0 58.027 5.547 18.517 14.464 33.152 29.141 48 11.435 11.52 16.427 15.147 29.952 21.632 8.917 4.309 20.992 8.704 26.88 9.856 10.496 2.005 42.027 1.323 52.053-1.109l4.693-1.109v66.645c0 47.189-0.555 66.987-1.92 67.84-4.139 2.56-56.789 1.365-74.027-1.707-102.4-18.176-181.461-94.549-201.685-194.944-4.309-21.205-4.224-69.12 0.128-89.344 7.211-33.707 18.304-60.544 35.883-86.955 47.616-71.467 132.352-114.347 218.411-110.507 113.835 5.035 205.568 81.664 232.491 194.176 2.731 11.52 3.072 26.197 3.584 164.139 0.341 83.285 1.152 151.467 1.792 151.424 0.683 0 6.613-3.541 13.184-7.808 28.032-18.304 71.253-35.627 107.52-43.093 16.128-3.328 48-7.083 60.16-7.083h5.547v131.157l-11.52 1.152c-68.949 6.869-124.843 42.837-154.368 99.328-12.715 24.363-16.555 38.059-21.077 75.989l-0.981 8.107h-134.571l-0.427-274.347z" />
<glyph unicode="&#xe930;" glyph-name="trash" d="M424.064 926.635c-39.253-5.12-73.856-35.627-85.76-75.605-3.712-12.459-4.267-18.091-5.077-53.504l-0.896-39.595-172.757-1.024-7.211-4.139c-9.429-5.376-13.141-13.141-13.227-27.435-0.043-14.165 4.309-23.125 13.739-28.032 5.931-3.157 10.325-3.584 38.699-4.096l32-0.555v-248.064c0-211.968 0.384-249.984 2.517-261.376 7.808-41.216 41.941-76.672 81.963-85.077 17.835-3.755 390.059-3.755 407.893 0 40.021 8.405 74.155 43.861 81.963 85.077 2.133 11.392 2.517 49.408 2.517 261.376v248.064l32 0.555c28.373 0.512 32.768 0.939 38.699 4.096 9.429 4.907 13.781 13.867 13.739 28.032-0.085 14.293-3.797 22.059-13.227 27.435l-7.211 4.139-172.757 1.024-0.896 39.595c-0.811 35.413-1.365 41.045-5.077 53.504-7.52 24.737-22.864 45.198-43.102 59.022l-0.375 0.242c-12.319 8.662-27.195 14.535-43.294 16.386l-0.439 0.041c-14.677 1.92-159.744 1.835-174.421-0.085zM605.867 857.557c8.704-5.888 17.749-19.627 19.371-29.355 0.597-3.541 1.067-20.821 1.109-38.443v-32h-228.693v32c0.043 17.621 0.512 34.901 1.109 38.443 2.261 13.696 17.451 31.744 28.757 34.219 1.877 0.427 41.045 0.64 87.040 0.512l83.627-0.213 7.68-5.163zM735.189 441.6l-0.469-251.307-3.669-6.827c-2.731-4.669-5.84-8.701-9.392-12.294l0.006 0.006c-11.947-11.435 1.365-10.752-209.664-10.752s-197.717-0.683-209.664 10.752c-3.115 2.987-7.339 8.533-9.387 12.288l-3.669 6.827-0.469 251.307-0.427 251.307h447.232l-0.427-251.307z" />
<glyph unicode="&#xe931;" glyph-name="twitter" d="M778.4 928h141.2l-308.4-352.4 362.8-479.6h-284l-222.6 290.8-254.4-290.8h-141.4l329.8 377-347.8 455h291.2l201-265.8 232.6 265.8zM728.8 180.4h78.2l-504.8 667.6h-84l510.6-667.6z" />
<glyph unicode="&#xe932;" glyph-name="user" d="M492.544 926.592c-82.944-7.339-154.325-67.797-176.085-149.163-4.341-15.632-6.836-33.582-6.836-52.115 0-41.281 12.379-79.671 33.627-111.66l-0.465 0.745c12.203-18.816 39.467-46.080 58.283-58.283 31.239-20.821 69.638-33.224 110.933-33.224s79.694 12.403 111.674 33.687l-0.741-0.464c18.816 12.203 46.080 39.467 58.283 58.283 51.669 79.829 42.24 182.4-23.083 250.496-32.813 34.913-78.022 57.844-128.564 61.74l-0.673 0.042c-5.344 0.587-12.369 1.121-19.446 1.46l-0.863 0.033c-0.469-0.128-7.68-0.811-16.043-1.579zM550.997 858.539c21.675-6.229 38.101-15.872 56.363-33.28 19.029-18.133 31.275-37.973 38.144-61.867 5.504-19.2 5.504-56.917 0-76.117-7.125-24.832-19.541-44.459-40.149-63.659-27.008-25.088-56.277-36.523-93.355-36.523s-66.347 11.435-93.355 36.523c-20.608 19.2-33.024 38.827-40.149 63.659-5.504 19.2-5.504 56.917 0 76.117 6.485 22.613 16 38.827 33.579 57.301 19.444 21.187 45.528 36.002 74.938 41.144l0.796 0.115c13.696 2.475 49.152 0.555 63.189-3.413zM321.877 414.592c-78.080-6.912-146.475-61.099-172.203-136.405-9.728-28.459-10.581-36.736-10.581-101.547 0-57.045 0.171-60.032 3.541-66.432 4.907-9.387 13.867-13.781 28.032-13.781s23.125 4.395 28.032 13.781c3.328 6.272 3.584 10.411 4.523 68.139 0.939 57.941 1.195 62.123 4.907 73.387 15.915 48.811 48.683 80.768 98.219 95.872 9.685 2.944 21.163 3.115 205.653 3.115h195.413l12.757-4.011c6.997-2.176 18.048-6.613 24.533-9.813 33.408-16.512 58.752-46.805 71.211-85.163 3.669-11.221 3.925-15.573 4.864-73.387 0.939-57.728 1.195-61.867 4.523-68.139 4.907-9.387 13.867-13.781 28.032-13.781s23.125 4.395 28.032 13.781c3.371 6.4 3.541 9.387 3.541 66.432 0 64.811-0.853 73.088-10.581 101.547-17.038 48.658-50.52 87.937-93.643 112.024l-1.035 0.531c-23.092 13.166-50.375 21.779-79.461 23.899l-0.625 0.037c-22.912 2.005-354.688 1.963-377.685-0.085z" />
<glyph unicode="&#xe933;" glyph-name="user-square" d="M162.091 884.224c-9.045-1.835-16.64-7.040-19.968-13.739-2.816-5.632-3.072-17.024-3.499-164.651l-0.469-158.635-40.491 40.235c-44.885 44.629-47.915 46.677-62.037 42.453-9.301-2.773-22.741-16.213-25.515-25.515-4.437-14.848-4.395-14.891 67.285-87.424 35.797-36.224 67.243-68.267 69.845-71.168 3.807-3.788 8.55-6.639 13.85-8.178l0.23-0.057c8.832-2.816 9.856-2.816 18.688 0 5.53 1.595 10.273 4.447 14.081 8.236l-0.001-0.001c2.603 2.901 34.048 34.944 69.845 71.168 71.68 72.533 71.723 72.576 67.285 87.424-2.773 9.301-16.213 22.741-25.515 25.515-14.123 4.224-17.152 2.176-62.037-42.453l-40.491-40.235-0.469 158.635c-0.427 148.309-0.683 158.976-3.499 164.693-5.248 10.496-22.016 16.683-37.12 13.696zM577.877 883.925c-82.944-7.339-154.325-67.797-176.085-149.163-4.341-15.632-6.836-33.582-6.836-52.115 0-41.281 12.379-79.671 33.627-111.66l-0.465 0.745c12.203-18.816 39.467-46.080 58.283-58.283 31.239-20.821 69.638-33.224 110.933-33.224s79.694 12.403 111.674 33.687l-0.741-0.464c18.816 12.203 46.080 39.467 58.283 58.283 51.669 79.829 42.24 182.4-23.083 250.496-32.813 34.913-78.022 57.844-128.564 61.74l-0.673 0.042c-5.344 0.587-12.369 1.121-19.446 1.46l-0.863 0.033c-0.469-0.128-7.68-0.811-16.043-1.579zM636.331 815.872c21.675-6.229 38.101-15.872 56.363-33.28 19.029-18.133 31.275-37.973 38.144-61.867 5.504-19.2 5.504-56.917 0-76.117-7.125-24.832-19.541-44.459-40.149-63.659-27.008-25.088-56.277-36.523-93.355-36.523s-66.347 11.435-93.355 36.523c-20.608 19.2-33.024 38.827-40.149 63.659-5.504 19.2-5.504 56.917 0 76.117 6.485 22.613 16 38.827 33.579 57.301 19.444 21.187 45.528 36.002 74.938 41.144l0.796 0.115c13.696 2.475 49.152 0.555 63.189-3.413zM407.211 414.592c-78.080-6.912-146.475-61.099-172.203-136.405-9.728-28.459-10.581-36.736-10.581-101.547 0-57.045 0.171-60.032 3.541-66.432 4.907-9.387 13.867-13.781 28.032-13.781s23.125 4.395 28.032 13.781c3.328 6.272 3.584 10.411 4.523 68.139 0.939 57.941 1.195 62.123 4.907 73.387 15.915 48.811 48.683 80.768 98.219 95.872 9.643 2.944 20.523 3.115 184.32 3.115h174.080l12.757-4.011c6.997-2.176 18.048-6.613 24.533-9.813 33.408-16.512 58.752-46.805 71.211-85.163 3.669-11.221 3.925-15.573 4.864-73.387 0.939-57.728 1.195-61.867 4.523-68.139 4.907-9.387 13.867-13.781 28.032-13.781s23.125 4.395 28.032 13.781c3.371 6.4 3.541 9.387 3.541 66.432 0 64.811-0.853 73.088-10.581 101.547-17.038 48.658-50.52 87.937-93.643 112.024l-1.035 0.531c-23.092 13.166-50.375 21.779-79.461 23.899l-0.625 0.037c-22.827 2.005-312.107 1.963-335.019-0.085z" />
<glyph unicode="&#xe934;" glyph-name="voice-cricle" d="M502.912 884.139c-8.256-1.688-15.068-6.807-18.999-13.769l-0.073-0.14c-3.371-5.76-3.413-8.875-3.413-358.229s0.043-352.469 3.413-358.229c4.171-7.438 11.498-12.681 20.118-13.934l0.149-0.018c15.659-2.944 29.184 2.304 36.053 13.952 3.371 5.76 3.413 9.344 3.925 348.843 0.299 188.672 0.043 347.819-0.555 353.664-1.749 17.28-10.325 26.453-26.411 28.245-1.682 0.18-3.634 0.283-5.61 0.283-3.035 0-6.014-0.242-8.918-0.709l0.319 0.042zM289.579 798.805c-8.256-1.688-15.068-6.807-18.999-13.769l-0.073-0.14c-3.371-5.717-3.413-8.875-3.413-272.896s0.043-267.179 3.413-272.896c6.869-11.648 20.395-16.896 36.053-13.952 8.769 1.271 16.095 6.514 20.195 13.813l0.072 0.139c3.371 5.717 3.413 9.344 3.925 263.509 0.299 141.739 0.043 262.485-0.555 268.331-1.749 17.28-10.325 26.453-26.411 28.245-1.682 0.18-3.634 0.283-5.61 0.283-3.035 0-6.014-0.242-8.918-0.709l0.319 0.042zM716.245 798.805c-8.256-1.688-15.068-6.807-18.999-13.769l-0.073-0.14c-3.371-5.717-3.413-8.875-3.413-272.896s0.043-267.179 3.413-272.896c4.171-7.438 11.498-12.681 20.118-13.934l0.149-0.018c15.659-2.944 29.184 2.304 36.053 13.952 3.371 5.717 3.413 9.344 3.925 263.509 0.299 141.739 0.043 262.485-0.555 268.331-1.749 17.28-10.325 26.453-26.411 28.245-1.682 0.18-3.634 0.283-5.61 0.283-3.035 0-6.014-0.242-8.918-0.709l0.319 0.042zM76.245 628.139c-8.256-1.688-15.068-6.807-18.999-13.769l-0.073-0.14c-3.285-5.632-3.413-8.875-3.413-102.229s0.128-96.597 3.413-102.229c6.869-11.648 20.395-16.896 36.053-13.952 8.769 1.271 16.095 6.514 20.195 13.813l0.072 0.139c3.285 5.547 3.456 9.387 3.968 92.843 0.299 47.872 0.043 91.819-0.555 97.664-1.792 17.28-10.411 26.453-26.453 28.245-1.682 0.18-3.634 0.283-5.61 0.283-3.035 0-6.014-0.242-8.918-0.709l0.319 0.042zM929.579 628.139c-8.256-1.688-15.068-6.807-18.999-13.769l-0.073-0.14c-3.285-5.632-3.413-8.875-3.413-102.229s0.128-96.597 3.413-102.229c6.869-11.648 20.395-16.896 36.053-13.952 8.769 1.271 16.095 6.514 20.195 13.813l0.072 0.139c3.285 5.547 3.456 9.387 3.968 92.843 0.299 47.872 0.043 91.819-0.555 97.664-1.792 17.28-10.411 26.453-26.453 28.245-1.682 0.18-3.634 0.283-5.61 0.283-3.035 0-6.014-0.242-8.918-0.709l0.319 0.042z" />
<glyph unicode="&#xe935;" glyph-name="youtube" d="M389.973 808.832c-114.219-2.901-191.147-9.259-217.088-17.963-27.028-9.573-48.699-28.585-61.492-52.984l-0.289-0.605c-16.768-34.091-24.789-106.965-24.789-225.28 0-118.4 8.021-191.232 24.789-225.28 13.879-26.434 37.313-46.27 65.6-55.126l0.789-0.213c12.075-3.584 53.077-8.747 87.893-11.093 120.619-8.149 335.403-8.96 465.067-1.749 105.941 5.888 134.699 13.099 162.304 40.704 26.837 26.837 34.987 56.192 42.795 153.771 2.773 34.773 2.773 163.2 0 197.973-7.808 97.621-16 127.061-42.795 153.643-18.304 18.176-35.029 26.411-63.872 31.445-64.384 11.221-267.179 17.109-438.912 12.757zM537.344 575.403c59.435-34.56 108.203-63.488 108.373-64.299 0.256-1.408-215.083-125.397-217.771-125.397-0.683 0-1.28 56.832-1.28 126.293s0.597 126.293 1.28 126.293c0.683-0.043 49.92-28.331 109.397-62.891z" />
<glyph unicode="&#xe936;" glyph-name="archive-add" d="M282.325 926.592c-24.96-2.944-46.891-13.995-66.219-33.365-20.608-20.565-30.507-41.344-33.579-70.315-1.152-10.88-1.579-133.931-1.28-360.405l0.512-343.893 3.712-5.973c8.875-14.208 20.693-20.352 32.853-17.109 4.693 1.28 53.163 34.901 150.229 104.192l143.275 102.357 135.339-96.683c-30.636 19.459 16.391-14.312 63.533-47.933l80.893-54.809c8.064-5.333 10.24-6.016 19.925-5.888 18.944 0.171 28.757 9.216 30.677 28.288 0.597 5.845 0.853 166.912 0.555 357.931-0.512 325.077-0.725 347.947-3.541 357.547-9.6 32.853-32.555 60.757-61.824 75.136-25.771 12.672-6.741 11.776-257.707 12.117-123.904 0.128-230.741-0.384-237.355-1.195zM744.704 860.117c12.373-4.651 25.429-17.707 30.080-30.080 3.456-9.216 3.456-11.264 3.029-324.096l-0.427-314.795-124.587 89.003c-68.523 48.939-127.061 90.027-130.091 91.307-3.157 1.395-6.838 2.206-10.709 2.206s-7.552-0.812-10.883-2.274l0.174 0.068c-3.029-1.28-61.568-42.368-130.091-91.307l-124.587-89.003-0.427 314.795c-0.427 312.832-0.427 314.88 3.029 324.096 4.523 12.032 17.707 25.429 29.611 29.995 8.533 3.285 13.909 3.371 232.661 3.456 220.971 0.085 224.085 0.043 233.216-3.371z" />
<glyph unicode="&#xe937;" glyph-name="archive-added" d="M282.325 926.592c-24.96-2.944-46.891-13.995-66.219-33.365-20.608-20.565-30.507-41.344-33.579-70.315-1.152-10.88-1.579-133.931-1.28-360.405l0.512-343.893 3.712-5.973c8.875-14.208 20.693-20.352 32.853-17.109 4.693 1.28 53.163 34.901 150.229 104.192l143.275 102.357 135.339-96.683c-30.636 19.459 16.391-14.312 63.533-47.933l80.893-54.809c8.064-5.333 10.24-6.016 19.925-5.888 18.944 0.171 28.757 9.216 30.677 28.288 0.597 5.845 0.853 166.912 0.555 357.931-0.512 325.077-0.725 347.947-3.541 357.547-9.6 32.853-32.555 60.757-61.824 75.136-25.771 12.672-6.741 11.776-257.707 12.117-123.904 0.128-230.741-0.384-237.355-1.195z" />
<glyph unicode="&#xe938;" glyph-name="subtract" d="M1024 512c0-282.769-229.231-512-512-512s-512 229.231-512 512c0 282.769 229.231 512 512 512s512-229.231 512-512zM415.969 729.143c-17.312 12.339-40.503-0.928-40.503-23.173v-387.939c0-22.245 23.19-35.512 40.503-23.173l272.164 193.969c15.468 11.023 15.468 35.323 0 46.346l-272.164 193.969z" />
<glyph unicode="&#xe939;" glyph-name="account-forget-password" d="M781.696 918.973c-27.054-7.588-48.169-31.846-53.074-60.969-2.98-17.72 0.333-25.149 11.218-25.149 9.124 0 11.284 3.21 13.594 20.209 3.133 23.107 25.231 42.936 47.846 42.936 19.103 0 37.75-13.681 44.979-33.004 8.228-21.996 2.575-40.033-17.224-54.948-29.665-22.354-40.556-40.556-40.556-67.794 0-8.294 0.696-10.655 4.188-14.147 5.002-5.002 11.049-5.366 16.451-0.993 3.287 2.668 4.142 5.453 5.11 16.753 1.797 20.9 5.663 26.711 30.766 46.275 13.133 10.23 18.749 17.111 25.047 30.659 3.814 8.207 4.547 12.124 4.526 24.294-0.041 19.789-3.092 30.536-12.774 44.974-9.19 13.701-21.064 23.613-34.437 28.744-12.012 4.608-33.347 5.617-45.66 2.161zM482.135 879.642c-43.346-4.316-70.016-10.527-94.003-21.888-52.89-25.057-81.193-66.365-92.109-134.431-2.048-12.785-3.067-33.618-3.707-75.935l-0.886-58.322 4.9-0.732c2.755-0.41 0.768-0.84-4.536-0.983-29.138-0.794-60.867-7.695-81.613-17.761-33.946-16.466-51.231-46.505-58.67-101.965-1.505-11.192-2.176-41.032-2.176-96.425s0.671-85.233 2.176-96.425c10.465-77.983 40.161-107.679 118.144-118.144 12.447-1.674 68.69-2.176 242.345-2.176s229.898 0.502 242.345 2.176c77.926 10.455 107.689 40.218 118.144 118.144 1.505 11.192 2.176 41.032 2.176 96.425s-0.671 85.233-2.176 96.425c-7.424 55.327-24.806 85.54-58.67 101.965-20.746 10.066-52.475 16.968-81.613 17.761-5.304 0.143-7.291 0.573-4.536 0.983l4.9 0.732-0.886 58.322c-0.947 62.433-2.708 80.174-10.767 108.36-4.762 16.66-14.874 38.973-23.158 51.092-25.37 37.14-67.953 60.483-126.894 69.56-16.384 2.524-74.583 4.649-88.73 3.241zM553.318 848.036c27.54-2.959 54.154-10.307 74.68-20.613 38.579-19.369 58.47-49.49 69.386-105.073 1.889-9.61 2.852-29.686 3.517-73.39l0.922-60.16h-379.264v48.461c0 74.834 4.357 103.864 20.588 137.201 11.402 23.424 27.74 40.279 50.309 51.896 22.216 11.438 52.347 19.671 81.848 22.364 15.974 1.459 61.798 1.055 78.013-0.686zM792.668 692.132c-2.304-2.304-4.188-6.18-4.188-8.612 0-5.688 7.112-12.8 12.8-12.8s12.8 7.112 12.8 12.8-7.112 12.8-12.8 12.8c-2.432 0-6.308-1.884-8.612-4.188zM739.84 556.298c74.982-7.107 96.415-28.37 103.158-102.323 2.319-25.411 2.319-140.14 0-165.55-6.743-73.953-28.175-95.217-103.158-102.323-25.513-2.417-430.167-2.417-455.68 0-74.982 7.107-96.415 28.37-103.158 102.323-2.319 25.411-2.319 140.14 0 165.55 6.651 72.98 28.646 95.314 100.685 102.252 22.083 2.125 435.789 2.191 458.153 0.072zM490.516 458.266c-24.873-5.412-51.046-26.127-61.926-49.024-11.151-23.455-11.126-52.68 0.061-76.216 7.639-16.067 25.923-34.089 42.655-42.035 36.465-17.316 77.901-10.163 106.337 18.355 21.053 21.115 29.404 45.942 25.19 74.86-2.852 19.584-10.122 33.736-24.97 48.625-23.644 23.706-54.287 32.63-87.347 25.436zM529.321 427.638c11.73-3.564 17.152-6.774 26.076-15.447 11.981-11.643 17.188-24.064 17.188-40.991 0-11.244-0.804-15.375-4.572-23.414-4.767-10.173-17.004-23.501-25.708-28.001-18.79-9.718-41.82-9.718-60.611 0-8.704 4.5-20.941 17.828-25.708 28.001-6.528 13.926-6.528 32.901 0 46.828 4.792 10.22 17.014 23.506 25.815 28.058 14.198 7.342 33.157 9.324 47.519 4.966z" />
<glyph unicode="&#xe93a;" glyph-name="account-forget-password-verify" d="M862.459 930.089c-37.919-6.84-72.791-38.098-84.669-75.904-5.345-17.004-5.345-47.846 0-64.85 10.481-33.352 39.634-62.505 72.986-72.986 9.533-2.995 16.082-3.753 32.425-3.753s22.892 0.758 32.425 3.753c33.352 10.481 62.505 39.634 72.986 72.986 2.995 9.533 3.753 16.082 3.753 32.425s-0.758 22.892-3.753 32.425c-10.373 33.004-39.685 62.541-72.131 72.678-12.795 3.999-40.55 5.658-54.021 3.226zM903.747 898.473c26.081-6.794 49.449-30.157 56.182-56.166 15.263-58.988-38.354-112.599-97.275-97.26-12.703 3.308-23.076 9.313-34.068 19.717-38.794 36.721-30.792 99.057 16.256 126.592 16.015 9.37 39.398 12.196 58.906 7.117zM267.095 891.469c-44.856-5.335-73.354-13.783-100.204-29.711-48.906-29.005-77.926-73.498-91.208-139.837-2.596-12.974-2.975-33.644-3.584-195.415-0.712-188.298-0.384-199.834 6.513-231.439 17.746-81.29 72.428-134.497 155.873-151.67 8.842-1.818 28.631-4.106 43.971-5.079 36.398-2.309 433.285-2.365 469.32-0.067 65.848 4.198 108.498 20.828 146.161 56.986 37.586 36.081 55.859 82.243 60.088 151.803 2.299 37.76 2.227 276.516-0.082 284.836-0.973 3.507-3.226 7.158-4.997 8.105-5.591 2.99-16.758 2.074-20.521-1.684-3.354-3.359-3.41-5.709-3.441-140.375-0.015-75.325-0.778-146.176-1.7-157.44-7.142-87.281-45.481-140.001-117.74-161.9-36.193-10.972-22.344-10.476-290.985-10.476-229.151 0-245.192 0.195-262.723 3.144-82.248 13.844-127.872 57.554-145.464 139.366-2.918 13.558-3.118 26.906-3.118 204.8 0 203.535-0.394 193.413 8.75 225.992 10.895 38.799 31.657 67.901 63.949 89.615 22.103 14.863 51.891 25.042 85.12 29.087 9.17 1.116 87.859 1.761 215.040 1.766 133.376 0.005 202.716 0.604 206.961 1.782 7.485 2.079 9.83 5.678 9.83 15.099 0 4.869-1.085 7.885-3.732 10.353-3.722 3.461-4.603 3.476-210.35 3.22-113.633-0.138-208.911-0.527-211.727-0.86zM289.551 653.66c-5.806-6.897-6.886-11.064-4.219-16.287 1.234-2.412 34.883-30.469 74.772-62.346 77.778-62.152 88.504-69.233 115.2-76.037 16.778-4.28 58.373-4.27 75.095 0.010 27.525 7.055 37.222 13.45 116.439 76.805 55.747 44.585 74.056 60.129 74.931 63.626 2.534 10.092-8.458 21.34-18.33 18.77-2.243-0.584-36.337-26.87-75.761-58.409-76.37-61.097-83.932-66.104-107.858-71.414-15.693-3.482-38.246-3.482-53.939 0-23.675 5.253-31.549 10.476-107.402 71.245-39.178 31.38-72.453 57.528-73.953 58.102-5.862 2.253-10.793 0.911-14.976-4.065z" />
<glyph unicode="&#xe93b;" glyph-name="account-login" d="M529.92 884.746c-60.462-6.139-85.35-12.145-117.76-28.426-55.782-28.027-88.34-82.125-98.191-163.139-2.427-19.968-0.87-24.95 8.709-27.817 8.32-2.493 15.933 0.317 18.376 6.784 0.942 2.499 2.56 11.628 3.594 20.28 4.572 38.405 19.297 78.397 36.987 100.485 25.226 31.488 60.334 48.829 117.565 58.076 22.267 3.594 81.029 4.961 107.638 2.499 62.925-5.821 104.453-21.755 132.342-50.775 23.188-24.136 35.61-52.511 44.698-102.129 3.697-20.198 3.748-22.784 3.748-188.585s-0.051-168.387-3.748-188.585c-9.088-49.618-21.509-77.993-44.698-102.129-36.106-37.576-97.951-54.472-189.512-51.789-43.551 1.28-66.903 4.71-96.548 14.177-40.274 12.867-69.432 37.268-87.444 73.18-9.979 19.896-18.739 52.337-21.847 80.916-1.807 16.635-10.588 22.938-23.665 16.978-6.989-3.18-8.12-9.692-5.258-30.234 15.831-113.659 73.129-168.335 191.974-183.178 22.426-2.801 92.032-2.77 115.2 0.051 86.886 10.583 139.182 41.646 168.52 100.106 14.080 28.052 23.598 67.323 26.762 110.397 2.442 33.28 2.442 286.935 0 320.215-7.9 107.551-48.067 168.806-128.722 196.28-16.712 5.693-41.196 11.028-64 13.947-14.981 1.915-82.647 3.64-94.72 2.412zM460.933 650.941c-4.040-3.4-5.253-5.811-5.253-10.45 0-6.927 2.048-9.221 66.488-74.307l38.446-38.825h-248.653c-178.601 0-249.825-0.532-252.815-1.894-10.281-4.685-10.281-22.246 0-26.931 2.99-1.362 73.533-1.894 250.255-1.894h246.088l-36.736-37.12c-60.887-61.517-63.073-63.98-63.073-70.907 0-10.378 12.882-18.125 22.011-13.24 1.659 0.886 31.944 31.181 67.302 67.318 60.657 61.988 64.287 66.048 64.287 71.88 0 5.837-3.686 9.953-65.889 73.487-60.524 61.819-66.35 67.302-71.552 67.302-3.594 0-7.567-1.608-10.906-4.419z" />
<glyph unicode="&#xe93c;" glyph-name="account-new-password" d="M482.135 879.642c-43.346-4.316-70.016-10.527-94.003-21.888-52.89-25.057-81.193-66.365-92.109-134.431-2.048-12.785-3.067-33.618-3.707-75.935l-0.886-58.322 4.9-0.732c2.755-0.41 0.768-0.84-4.536-0.983-29.138-0.794-60.867-7.695-81.613-17.761-33.946-16.466-51.231-46.505-58.67-101.965-1.505-11.192-2.176-41.032-2.176-96.425s0.671-85.233 2.176-96.425c10.465-77.983 40.161-107.679 118.144-118.144 12.447-1.674 68.69-2.176 242.345-2.176s229.898 0.502 242.345 2.176c77.926 10.455 107.689 40.218 118.144 118.144 1.505 11.192 2.176 41.032 2.176 96.425s-0.671 85.233-2.176 96.425c-7.424 55.327-24.806 85.54-58.67 101.965-20.746 10.066-52.475 16.968-81.613 17.761-5.304 0.143-7.291 0.573-4.536 0.983l4.9 0.732-0.886 58.322c-0.947 62.433-2.708 80.174-10.767 108.36-4.762 16.66-14.874 38.973-23.158 51.092-25.37 37.14-67.953 60.483-126.894 69.56-16.384 2.524-74.583 4.649-88.73 3.241zM553.318 848.036c27.54-2.959 54.154-10.307 74.68-20.613 38.579-19.369 58.47-49.49 69.386-105.073 1.889-9.61 2.852-29.686 3.517-73.39l0.922-60.16h-379.264v48.461c0 74.834 4.357 103.864 20.588 137.201 11.402 23.424 27.74 40.279 50.309 51.896 22.216 11.438 52.347 19.671 81.848 22.364 15.974 1.459 61.798 1.055 78.013-0.686zM739.84 556.298c74.982-7.107 96.415-28.37 103.158-102.323 2.319-25.411 2.319-140.14 0-165.55-6.743-73.953-28.175-95.217-103.158-102.323-25.513-2.417-430.167-2.417-455.68 0-74.982 7.107-96.415 28.37-103.158 102.323-2.319 25.411-2.319 140.14 0 165.55 6.651 72.98 28.646 95.314 100.685 102.252 22.083 2.125 435.789 2.191 458.153 0.072zM490.516 458.266c-24.873-5.412-51.046-26.127-61.926-49.024-11.151-23.455-11.126-52.68 0.061-76.216 7.639-16.067 25.923-34.089 42.655-42.035 36.465-17.316 77.901-10.163 106.337 18.355 21.053 21.115 29.404 45.942 25.19 74.86-2.852 19.584-10.122 33.736-24.97 48.625-23.644 23.706-54.287 32.63-87.347 25.436zM529.321 427.638c11.73-3.564 17.152-6.774 26.076-15.447 11.981-11.643 17.188-24.064 17.188-40.991 0-11.244-0.804-15.375-4.572-23.414-4.767-10.173-17.004-23.501-25.708-28.001-18.79-9.718-41.82-9.718-60.611 0-8.704 4.5-20.941 17.828-25.708 28.001-6.528 13.926-6.528 32.901 0 46.828 4.792 10.22 17.014 23.506 25.815 28.058 14.198 7.342 33.157 9.324 47.519 4.966z" />
<glyph unicode="&#xe93d;" glyph-name="account-email" d="M266.24 876.119c-46.106-4.762-87.813-20.982-115.84-45.061-30.367-26.092-48.988-60.416-58.68-108.196l-3.825-18.862v-188.585c0-173.957 0.236-189.844 3.052-204.749 15.918-84.326 63.596-134.129 145.362-151.844 27.991-6.067 62.336-6.917 278.252-6.897 207.877 0.020 243.784 0.824 271.877 6.088 59.648 11.177 104.868 43.346 128.886 91.689 14.469 29.123 20.803 55.552 23.352 97.475 2.181 35.907 2.161 299.244-0.031 335.258-4.004 65.838-21.54 109.757-57.375 143.693-24.561 23.265-52.92 37.043-95.36 46.326l-17.055 3.727-248.32 0.276c-136.576 0.154-251.008 0-254.295-0.338zM786.775 841.021c22.077-5.571 36.5-11.233 51.149-20.086 38.057-22.994 60.063-60.211 68.649-116.081 3.185-20.746 3.231-357.55 0.051-379.146-6.354-43.162-19.466-72.013-43.761-96.307-16.548-16.553-32.323-26.245-55.526-34.125-35.917-12.191-22.881-11.617-280.832-12.293-159.892-0.415-238.515-0.020-252.708 1.275-77.45 7.060-124.252 39.808-144.932 101.417-10.527 31.35-10.107 22.723-10.726 219.5-0.374 117.197 0.046 185.426 1.203 195.446 8.259 71.767 43.822 117.448 106.158 136.376 31.171 9.462 24.346 9.257 294.18 8.888l249.175-0.343 17.92-4.521zM289.551 653.66c-5.806-6.897-6.886-11.064-4.219-16.287 1.234-2.412 34.883-30.469 74.772-62.346 77.778-62.152 88.504-69.233 115.2-76.037 16.778-4.28 58.373-4.27 75.095 0.010 27.525 7.055 37.222 13.45 116.439 76.805 55.747 44.585 74.056 60.129 74.931 63.626 2.534 10.092-8.458 21.34-18.33 18.77-2.243-0.584-36.337-26.87-75.761-58.409-76.37-61.097-83.932-66.104-107.858-71.414-15.693-3.482-38.246-3.482-53.939 0-23.675 5.253-31.549 10.476-107.402 71.245-39.178 31.38-72.453 57.528-73.953 58.102-5.862 2.253-10.793 0.911-14.976-4.065z" />
</font>
</defs>
</svg>
