<svg width="32" height="32" viewBox="0 0 32 32" fill="none" xmlns="http://www.w3.org/2000/svg">
<path d="M30.0033 16.3109C30.0033 15.1598 29.908 14.3198 29.7018 13.4487H16.2891V18.6442H24.162C24.0033 19.9354 23.1462 21.8798 21.2414 23.1864L21.2147 23.3604L25.4555 26.58L25.7494 26.6087C28.4477 24.1665 30.0033 20.5731 30.0033 16.3109Z" fill="#4285F4"/>
<path d="M16.2853 29.9998C20.1424 29.9998 23.3804 28.7553 25.7456 26.6086L21.2377 23.1863C20.0313 24.0108 18.4123 24.5863 16.2853 24.5863C12.5076 24.5863 9.30128 22.1441 8.15832 18.7686L7.99078 18.7825L3.58111 22.127L3.52344 22.2841C5.87261 26.8574 10.698 29.9998 16.2853 29.9998Z" fill="#34A853"/>
<path d="M8.15866 18.769C7.85708 17.8979 7.68255 16.9645 7.68255 16.0001C7.68255 15.0356 7.85708 14.1023 8.1428 13.2312L8.13481 13.0456L3.66986 9.64746L3.52377 9.71556C2.55556 11.6134 2 13.7445 2 16.0001C2 18.2556 2.55556 20.3867 3.52377 22.2845L8.15866 18.769Z" fill="#FBBC05"/>
<path d="M16.2854 7.4133C18.9679 7.4133 20.7774 8.54885 21.8092 9.4978L25.8409 5.64C23.3648 3.38445 20.1425 2 16.2854 2C10.698 2 5.87262 5.1422 3.52344 9.71549L8.14247 13.2311C9.30131 9.85555 12.5076 7.4133 16.2854 7.4133Z" fill="#EB4335"/>
</svg>
