<?xml version="1.0" encoding="utf-8"?>
<!-- Generator: Adobe Illustrator 24.1.2, SVG Export Plug-In . SVG Version: 6.00 Build 0)  -->
<svg version="1.1" id="Layer_1" xmlns="http://www.w3.org/2000/svg" xmlns:xlink="http://www.w3.org/1999/xlink" x="0px" y="0px"
	 viewBox="0 0 615.2 331.4" style="enable-background:new 0 0 615.2 331.4;" xml:space="preserve">
<style type="text/css">
	.st0{fill:#ffffff;}
</style>
<g>
	<g>
		<g>
			<g>
				<path class="st0" d="M48.8,198.2H33.3v-152h0c8.6,0,15.5,6.9,15.5,15.5V198.2z"/>
			</g>
			<g>
				<path class="st0" d="M139.1,198.2h-15.5v-152h0c8.6,0,15.5,6.9,15.5,15.5V198.2z"/>
			</g>
			<path class="st0" d="M302,88.4v15.8c-10.7-11.4-25.9-18.4-42.8-18.1c-30,0.5-54.7,24.6-56.1,54.5c-1.5,32.8,24.7,60,57.2,60
				c16.4,0,31.3-7,41.7-18.1v15.8h15.5v-94.3C317.5,95.3,310.5,88.4,302,88.4L302,88.4z M264.1,184.8c-26,2.3-47.7-19.4-45.3-45.3
				c1.8-19.9,17.8-36,37.7-37.7c26-2.3,47.7,19.4,45.3,45.3C300,167,284,183.1,264.1,184.8z"/>
			<path class="st0" d="M555.9,88.4v15.8c-10.7-11.4-25.9-18.4-42.8-18.1c-30,0.5-54.7,24.6-56.1,54.5c-1.5,32.8,24.7,60,57.2,60
				c16.4,0,31.3-7,41.7-18.1v15.8h15.5v-94.3C571.4,95.3,564.5,88.4,555.9,88.4L555.9,88.4z M518,184.8c-26,2.3-47.7-19.4-45.3-45.3
				c1.8-19.9,17.8-36,37.7-37.7c26-2.3,47.7,19.4,45.3,45.3C553.9,167,537.9,183.1,518,184.8z"/>
			<path class="st0" d="M389.5,86.1c-27.3,0.5-48.9,23.4-48.9,50.6v61.5h15.5v-61.6c0-19.2,15.7-35.3,34.9-35
				c18.6,0.3,33.7,15.6,33.7,34.3v62.3h15.5v-62.3C440.3,108.1,417.4,85.5,389.5,86.1z"/>
			<g>
				<g>
					<path class="st0" d="M94,198.2H78.4V88.4h0c8.6,0,15.5,6.9,15.5,15.5V198.2z"/>
				</g>
				<g>
					<circle class="st0" cx="86.2" cy="60" r="13.9"/>
				</g>
			</g>
			<g>
				<g>
					<path class="st0" d="M184.3,198.2h-15.5V88.4h0c8.6,0,15.5,6.9,15.5,15.5V198.2z"/>
				</g>
				<g>
					<circle class="st0" cx="176.6" cy="60" r="13.9"/>
				</g>
			</g>
		</g>
		<g>
			<path class="st0" d="M33.3,288.4l7.8-49.6l18,39.7l18.4-39.8l7.3,49.7h-5.4l-4.4-32.7l-16,34.7l-15.8-34.7l-4.7,32.7H33.3z"/>
			<path class="st0" d="M151,264.9c0-14,10.9-24.3,24.5-24.3s24.5,10.3,24.5,24.3c0,14-10.9,24.3-24.5,24.3
				C161.9,289.2,151,278.9,151,264.9z M156.4,264.9c0,10.8,8.5,19.4,19.1,19.4s19.1-8.6,19.1-19.4c0-10.8-8.5-19.4-19.1-19.4
				S156.4,254.1,156.4,264.9z"/>
			<path class="st0" d="M267.3,241.4h9.6c4.7,0,11.4,0.5,17.3,5.5c4.3,3.6,8,9.6,8,18c0,9.9-4.9,15.2-8.2,18
				c-4.3,3.7-8.8,5.4-17.2,5.4h-9.5V241.4z M272.5,283.4h4.6c3.7,0,8.9-0.4,13.5-4.2c3.5-3,6.3-7.6,6.3-14.3
				c0-11.3-7.9-18.6-19.8-18.6h-4.6V283.4z"/>
			<path class="st0" d="M394.1,246.3h-19.2v14h18.6v4.9h-18.6v18.3h19.2v4.9h-24.4v-47h24.4V246.3z"/>
			<path class="st0" d="M466.7,241.4v42.1h13v4.9h-18.2v-47H466.7z"/>
			<path class="st0" d="M565.5,250.7c-0.6-1.3-1.7-2.7-2.7-3.5c-0.9-0.7-2.6-1.6-5.3-1.6c-4.7,0-7.9,2.9-7.9,7.3
				c0,1.8,0.5,2.9,1.8,4.1c1.4,1.4,3.2,2.2,4.9,3l4.5,2c3,1.3,5.8,2.7,7.8,5c1.9,2.2,2.8,5.1,2.8,8c0,8.7-6.4,14.4-14.9,14.4
				c-3.1,0-7-0.6-10.2-3.8c-2.3-2.3-3.7-5.5-4.4-8.3l5.1-1.4c0.4,2.5,1.5,4.6,2.8,6c2,2,4.4,2.6,6.8,2.6c6.4,0,9.4-4.6,9.4-9.3
				c0-2.1-0.6-3.9-2.3-5.5c-1.3-1.3-3.2-2.1-5.6-3.2l-4.2-2c-1.8-0.8-4.2-1.8-6.3-3.9c-2-2-3.2-4.2-3.2-7.7
				c0-7.3,5.6-12.1,13.2-12.1c2.9,0,5.2,0.6,7.5,2.1c1.9,1.3,3.5,3.2,4.6,5.2L565.5,250.7z"/>
		</g>
	</g>
	<g>
		<path class="st0" d="M584.9,46.5c7.4,0,13.5,6.1,13.5,13.5s-6.1,13.5-13.5,13.5s-13.5-6.1-13.5-13.5S577.5,46.5,584.9,46.5z
			 M584.9,71.5c6.3,0,11.5-5.2,11.5-11.5s-5.2-11.5-11.5-11.5s-11.5,5.2-11.5,11.5S578.6,71.5,584.9,71.5z M580,52.1h6
			c1.3,0,4.5,0.5,4.5,4.3c0,2.7-2.3,4.2-4.1,4.2H586l5,7.4h-3l-4.8-7.3h-0.7v7.3H580V52.1z M582.5,58.6h2.2c2.5,0,3-1,3-2.2
			s-0.4-2.2-2.7-2.2h-2.6V58.6z"/>
	</g>
</g>
</svg>
