<svg width="155" height="154" viewBox="0 0 155 154" fill="none" xmlns="http://www.w3.org/2000/svg">
<path opacity="0.75" d="M77.5 141C112.7 141 141.5 112.2 141.5 77C141.5 41.8 112.7 13 77.5 13C42.3 13 13.5 41.8 13.5 77C13.5 112.2 42.3 141 77.5 141Z" stroke="#06C270" stroke-width="1.5" stroke-linecap="round" stroke-linejoin="round"/>
<path opacity="0.5" d="M77.5 151C118.2 151 151.5 117.7 151.5 77C151.5 36.3 118.2 3 77.5 3C36.8 3 3.5 36.3 3.5 77C3.5 117.7 36.8 151 77.5 151Z" stroke="#06C270" stroke-linecap="round" stroke-linejoin="round"/>
<path d="M77.5 131C107.2 131 131.5 106.7 131.5 77C131.5 47.3 107.2 23 77.5 23C47.8 23 23.5 47.3 23.5 77C23.5 106.7 47.8 131 77.5 131Z" stroke="#06C270" stroke-width="2" stroke-linecap="round" stroke-linejoin="round"/>
<path d="M54.832 76.9996L69.9254 92.0929L100.165 61.9062" stroke="#06C270" stroke-width="4" stroke-linecap="round"/>
</svg>
