<svg width="78" height="78" viewBox="0 0 78 78" fill="none" xmlns="http://www.w3.org/2000/svg">
<g id="ic:baseline-qr-code-2">
<path id="Vector" d="M48.75 68.25H42.25V61.75H48.75V68.25ZM42.25 45.5H35.75V61.75H42.25V45.5ZM68.25 39H61.75V52H68.25V39ZM61.75 32.5H55.25V39H61.75V32.5ZM22.75 39H16.25V45.5H22.75V39ZM16.25 32.5H9.75V39H16.25V32.5ZM39 16.25H45.5V9.75H39V16.25ZM14.625 14.625V24.375H24.375V14.625H14.625ZM29.25 29.25H9.75V9.75H29.25V29.25ZM14.625 53.625V63.375H24.375V53.625H14.625ZM29.25 68.25H9.75V48.75H29.25V68.25ZM53.625 14.625V24.375H63.375V14.625H53.625ZM68.25 29.25H48.75V9.75H68.25V29.25ZM61.75 61.75V52H48.75V58.5H55.25V68.25H68.25V61.75H61.75ZM55.25 39H42.25V45.5H55.25V39ZM42.25 32.5H22.75V39H29.25V45.5H35.75V39H42.25V32.5ZM45.5 29.25V22.75H39V16.25H32.5V29.25H45.5ZM21.9375 17.0625H17.0625V21.9375H21.9375V17.0625ZM21.9375 56.0625H17.0625V60.9375H21.9375V56.0625ZM60.9375 17.0625H56.0625V21.9375H60.9375V17.0625Z" fill="#0D0D0D"/>
</g>
</svg>
